<svg xmlns="http://www.w3.org/2000/svg" version="1.1" xmlns:xlink="http://www.w3.org/1999/xlink" xmlns:svgjs="http://svgjs.dev/svgjs" viewBox="0 0 800 800" preserveAspectRatio="xMidYMid slice" speechify-initial-font-family="ui-sans-serif, system-ui, -apple-system, BlinkMacSystemFont, &quot;Segoe UI&quot;, Roboto, &quot;Helvetica Neue&quot;, Arial, &quot;Noto Sans&quot;, sans-serif, &quot;Apple Color Emoji&quot;, &quot;Segoe UI Emoji&quot;, &quot;Segoe UI Symbol&quot;, &quot;Noto Color Emoji&quot;" speechify-initial-font-size="22px"><defs><pattern id="pppixelate-pattern" width="20" height="20" patternUnits="userSpaceOnUse" patternTransform="translate(0 0) scale(40) rotate(0)" shape-rendering="crispEdges">
    <rect width="1" height="1" x="0" y="0" fill="#86efacff"></rect><rect width="1" height="1" x="1" y="0" fill="#86efacff"></rect><rect width="1" height="1" x="2" y="0" fill="#86efacff"></rect><rect width="1" height="1" x="3" y="0" fill="#86efacff"></rect><rect width="1" height="1" x="4" y="0" fill="#86efacff"></rect><rect width="1" height="1" x="5" y="0" fill="#86efacff"></rect><rect width="1" height="1" x="15" y="0" fill="#86efac"></rect><rect width="1" height="1" x="16" y="0" fill="#86efac"></rect><rect width="1" height="1" x="0" y="1" fill="#86efacff"></rect><rect width="1" height="1" x="1" y="1" fill="#86efacff"></rect><rect width="1" height="1" x="2" y="1" fill="#86efacff"></rect><rect width="1" height="1" x="4" y="1" fill="#86efacff"></rect><rect width="1" height="1" x="6" y="1" fill="#86efacff"></rect><rect width="1" height="1" x="14" y="1" fill="#497e5b"></rect><rect width="1" height="1" x="0" y="2" fill="#86efacff"></rect><rect width="1" height="1" x="1" y="2" fill="#86efacff"></rect><rect width="1" height="1" x="2" y="2" fill="#86efacff"></rect><rect width="1" height="1" x="3" y="2" fill="#86efacff"></rect><rect width="1" height="1" x="4" y="2" fill="#86efacff"></rect><rect width="1" height="1" x="5" y="2" fill="#86efacff"></rect><rect width="1" height="1" x="11" y="2" fill="#497e5b"></rect><rect width="1" height="1" x="17" y="2" fill="#86efac"></rect><rect width="1" height="1" x="19" y="2" fill="#497e5b"></rect><rect width="1" height="1" x="0" y="3" fill="#86efacff"></rect><rect width="1" height="1" x="1" y="3" fill="#86efacff"></rect><rect width="1" height="1" x="2" y="3" fill="#86efacff"></rect><rect width="1" height="1" x="3" y="3" fill="#86efacff"></rect><rect width="1" height="1" x="4" y="3" fill="#86efacff"></rect><rect width="1" height="1" x="5" y="3" fill="#86efacff"></rect><rect width="1" height="1" x="10" y="3" fill="#86efacff"></rect><rect width="1" height="1" x="11" y="3" fill="#69b985"></rect><rect width="1" height="1" x="14" y="3" fill="#86efac"></rect><rect width="1" height="1" x="16" y="3" fill="#497e5b"></rect><rect width="1" height="1" x="19" y="3" fill="#86efac"></rect><rect width="1" height="1" x="0" y="4" fill="#86efacff"></rect><rect width="1" height="1" x="1" y="4" fill="#86efacff"></rect><rect width="1" height="1" x="2" y="4" fill="#86efacff"></rect><rect width="1" height="1" x="3" y="4" fill="#86efacff"></rect><rect width="1" height="1" x="4" y="4" fill="#86efacff"></rect><rect width="1" height="1" x="17" y="4" fill="#497e5b"></rect><rect width="1" height="1" x="19" y="4" fill="#497e5b"></rect><rect width="1" height="1" x="0" y="5" fill="#86efacff"></rect><rect width="1" height="1" x="1" y="5" fill="#86efacff"></rect><rect width="1" height="1" x="2" y="5" fill="#86efacff"></rect><rect width="1" height="1" x="4" y="5" fill="#86efacff"></rect><rect width="1" height="1" x="6" y="5" fill="#86efac"></rect><rect width="1" height="1" x="9" y="5" fill="#69b985"></rect><rect width="1" height="1" x="12" y="5" fill="#497e5b"></rect><rect width="1" height="1" x="14" y="5" fill="#497e5b"></rect><rect width="1" height="1" x="0" y="6" fill="#86efacff"></rect><rect width="1" height="1" x="1" y="6" fill="#86efacff"></rect><rect width="1" height="1" x="2" y="6" fill="#86efacff"></rect><rect width="1" height="1" x="3" y="6" fill="#86efacff"></rect><rect width="1" height="1" x="4" y="6" fill="#86efacff"></rect><rect width="1" height="1" x="5" y="6" fill="#86efacff"></rect><rect width="1" height="1" x="11" y="6" fill="#69b985"></rect><rect width="1" height="1" x="15" y="6" fill="#86efac"></rect><rect width="1" height="1" x="0" y="7" fill="#86efacff"></rect><rect width="1" height="1" x="1" y="7" fill="#86efacff"></rect><rect width="1" height="1" x="2" y="7" fill="#86efacff"></rect><rect width="1" height="1" x="3" y="7" fill="#86efacff"></rect><rect width="1" height="1" x="4" y="7" fill="#86efacff"></rect><rect width="1" height="1" x="15" y="7" fill="#497e5b"></rect><rect width="1" height="1" x="19" y="7" fill="#86efac"></rect><rect width="1" height="1" x="0" y="8" fill="#86efacff"></rect><rect width="1" height="1" x="1" y="8" fill="#86efacff"></rect><rect width="1" height="1" x="2" y="8" fill="#86efacff"></rect><rect width="1" height="1" x="3" y="8" fill="#86efacff"></rect><rect width="1" height="1" x="4" y="8" fill="#86efacff"></rect><rect width="1" height="1" x="10" y="8" fill="#86efac"></rect><rect width="1" height="1" x="13" y="8" fill="#497e5b"></rect><rect width="1" height="1" x="17" y="8" fill="#86efac"></rect><rect width="1" height="1" x="0" y="9" fill="#86efacff"></rect><rect width="1" height="1" x="1" y="9" fill="#86efacff"></rect><rect width="1" height="1" x="2" y="9" fill="#86efacff"></rect><rect width="1" height="1" x="3" y="9" fill="#86efacff"></rect><rect width="1" height="1" x="4" y="9" fill="#86efacff"></rect><rect width="1" height="1" x="14" y="9" fill="#86efac"></rect><rect width="1" height="1" x="0" y="10" fill="#86efacff"></rect><rect width="1" height="1" x="1" y="10" fill="#86efacff"></rect><rect width="1" height="1" x="2" y="10" fill="#86efacff"></rect><rect width="1" height="1" x="3" y="10" fill="#86efacff"></rect><rect width="1" height="1" x="4" y="10" fill="#86efacff"></rect><rect width="1" height="1" x="8" y="10" fill="#497e5b"></rect><rect width="1" height="1" x="11" y="10" fill="#497e5b"></rect><rect width="1" height="1" x="17" y="10" fill="#86efac"></rect><rect width="1" height="1" x="0" y="11" fill="#86efacff"></rect><rect width="1" height="1" x="1" y="11" fill="#86efacff"></rect><rect width="1" height="1" x="2" y="11" fill="#86efacff"></rect><rect width="1" height="1" x="3" y="11" fill="#86efacff"></rect><rect width="1" height="1" x="4" y="11" fill="#86efacff"></rect><rect width="1" height="1" x="5" y="11" fill="#86efacff"></rect><rect width="1" height="1" x="8" y="11" fill="#69b985"></rect><rect width="1" height="1" x="14" y="11" fill="#497e5b"></rect><rect width="1" height="1" x="15" y="11" fill="#69b985"></rect><rect width="1" height="1" x="18" y="11" fill="#497e5b"></rect><rect width="1" height="1" x="0" y="12" fill="#86efacff"></rect><rect width="1" height="1" x="1" y="12" fill="#86efacff"></rect><rect width="1" height="1" x="2" y="12" fill="#86efacff"></rect><rect width="1" height="1" x="3" y="12" fill="#86efacff"></rect><rect width="1" height="1" x="4" y="12" fill="#86efacff"></rect><rect width="1" height="1" x="10" y="12" fill="#69b985"></rect><rect width="1" height="1" x="19" y="12" fill="#86efac"></rect><rect width="1" height="1" x="0" y="13" fill="#86efacff"></rect><rect width="1" height="1" x="1" y="13" fill="#86efacff"></rect><rect width="1" height="1" x="2" y="13" fill="#86efacff"></rect><rect width="1" height="1" x="3" y="13" fill="#86efacff"></rect><rect width="1" height="1" x="4" y="13" fill="#86efacff"></rect><rect width="1" height="1" x="5" y="13" fill="#86efacff"></rect><rect width="1" height="1" x="7" y="13" fill="#69b985"></rect><rect width="1" height="1" x="8" y="13" fill="#69b985"></rect><rect width="1" height="1" x="9" y="13" fill="#86efac"></rect><rect width="1" height="1" x="13" y="13" fill="#497e5b"></rect><rect width="1" height="1" x="18" y="13" fill="#86efac"></rect><rect width="1" height="1" x="0" y="14" fill="#86efacff"></rect><rect width="1" height="1" x="1" y="14" fill="#86efacff"></rect><rect width="1" height="1" x="2" y="14" fill="#86efacff"></rect><rect width="1" height="1" x="3" y="14" fill="#86efacff"></rect><rect width="1" height="1" x="4" y="14" fill="#86efacff"></rect><rect width="1" height="1" x="5" y="14" fill="#86efacff"></rect><rect width="1" height="1" x="8" y="14" fill="#497e5b"></rect><rect width="1" height="1" x="9" y="14" fill="#69b985"></rect><rect width="1" height="1" x="14" y="14" fill="#86efac"></rect><rect width="1" height="1" x="0" y="15" fill="#86efacff"></rect><rect width="1" height="1" x="1" y="15" fill="#86efacff"></rect><rect width="1" height="1" x="2" y="15" fill="#86efacff"></rect><rect width="1" height="1" x="3" y="15" fill="#86efacff"></rect><rect width="1" height="1" x="4" y="15" fill="#86efacff"></rect><rect width="1" height="1" x="15" y="15" fill="#497e5b"></rect><rect width="1" height="1" x="17" y="15" fill="#497e5b"></rect><rect width="1" height="1" x="0" y="16" fill="#86efacff"></rect><rect width="1" height="1" x="1" y="16" fill="#86efacff"></rect><rect width="1" height="1" x="3" y="16" fill="#86efacff"></rect><rect width="1" height="1" x="4" y="16" fill="#86efacff"></rect><rect width="1" height="1" x="8" y="16" fill="#86efacff"></rect><rect width="1" height="1" x="11" y="16" fill="#497e5b"></rect><rect width="1" height="1" x="12" y="16" fill="#86efac"></rect><rect width="1" height="1" x="14" y="16" fill="#497e5b"></rect><rect width="1" height="1" x="18" y="16" fill="#86efac"></rect><rect width="1" height="1" x="19" y="16" fill="#497e5b"></rect><rect width="1" height="1" x="0" y="17" fill="#86efacff"></rect><rect width="1" height="1" x="1" y="17" fill="#86efacff"></rect><rect width="1" height="1" x="2" y="17" fill="#86efacff"></rect><rect width="1" height="1" x="3" y="17" fill="#86efacff"></rect><rect width="1" height="1" x="16" y="17" fill="#86efac"></rect><rect width="1" height="1" x="0" y="18" fill="#86efacff"></rect><rect width="1" height="1" x="1" y="18" fill="#86efacff"></rect><rect width="1" height="1" x="2" y="18" fill="#86efacff"></rect><rect width="1" height="1" x="11" y="18" fill="#86efac"></rect><rect width="1" height="1" x="0" y="19" fill="#86efacff"></rect><rect width="1" height="1" x="1" y="19" fill="#86efacff"></rect><rect width="1" height="1" x="8" y="19" fill="#86efacff"></rect><rect width="1" height="1" x="14" y="19" fill="#69b985"></rect><rect width="1" height="1" x="15" y="19" fill="#497e5b"></rect><rect width="1" height="1" x="16" y="19" fill="#86efac"></rect>
  </pattern></defs><rect width="100%" height="100%" fill="url(#pppixelate-pattern)"></rect></svg>