<svg xmlns="http://www.w3.org/2000/svg" version="1.1" xmlns:xlink="http://www.w3.org/1999/xlink" xmlns:svgjs="http://svgjs.dev/svgjs" viewBox="0 0 800 800" preserveAspectRatio="xMidYMid slice"><defs><pattern id="pppixelate-pattern" width="20" height="20" patternUnits="userSpaceOnUse" patternTransform="translate(0 -1) scale(40) rotate(0)" shape-rendering="crispEdges">
    <rect width="1" height="1" x="0" y="0" fill="#86efac"></rect><rect width="1" height="1" x="1" y="0" fill="#86efac"></rect><rect width="1" height="1" x="2" y="0" fill="#86efac"></rect><rect width="1" height="1" x="3" y="0" fill="#86efac"></rect><rect width="1" height="1" x="4" y="0" fill="#86efac"></rect><rect width="1" height="1" x="9" y="0" fill="#86efac"></rect><rect width="1" height="1" x="0" y="1" fill="#86efac"></rect><rect width="1" height="1" x="1" y="1" fill="#86efac"></rect><rect width="1" height="1" x="2" y="1" fill="#86efac"></rect><rect width="1" height="1" x="3" y="1" fill="#86efac"></rect><rect width="1" height="1" x="4" y="1" fill="#86efac"></rect><rect width="1" height="1" x="5" y="1" fill="#86efac"></rect><rect width="1" height="1" x="6" y="1" fill="#86efac"></rect><rect width="1" height="1" x="8" y="1" fill="#86efac"></rect><rect width="1" height="1" x="10" y="1" fill="#86efac"></rect><rect width="1" height="1" x="14" y="1" fill="#86efac"></rect><rect width="1" height="1" x="17" y="1" fill="#86efac"></rect><rect width="1" height="1" x="0" y="2" fill="#86efac"></rect><rect width="1" height="1" x="1" y="2" fill="#86efac"></rect><rect width="1" height="1" x="2" y="2" fill="#86efac"></rect><rect width="1" height="1" x="3" y="2" fill="#86efac"></rect><rect width="1" height="1" x="4" y="2" fill="#86efac"></rect><rect width="1" height="1" x="6" y="2" fill="#86efac"></rect><rect width="1" height="1" x="7" y="2" fill="#86efac"></rect><rect width="1" height="1" x="10" y="2" fill="#86efac"></rect><rect width="1" height="1" x="11" y="2" fill="#86efac"></rect><rect width="1" height="1" x="15" y="2" fill="#86efac"></rect><rect width="1" height="1" x="18" y="2" fill="#86efac"></rect><rect width="1" height="1" x="0" y="3" fill="#86efac"></rect><rect width="1" height="1" x="1" y="3" fill="#86efac"></rect><rect width="1" height="1" x="2" y="3" fill="#86efac"></rect><rect width="1" height="1" x="3" y="3" fill="#86efac"></rect><rect width="1" height="1" x="4" y="3" fill="#86efac"></rect><rect width="1" height="1" x="6" y="3" fill="#86efac"></rect><rect width="1" height="1" x="7" y="3" fill="#86efac"></rect><rect width="1" height="1" x="8" y="3" fill="#86efac"></rect><rect width="1" height="1" x="9" y="3" fill="#86efac"></rect><rect width="1" height="1" x="14" y="3" fill="#86efac"></rect><rect width="1" height="1" x="17" y="3" fill="#86efac"></rect><rect width="1" height="1" x="19" y="3" fill="#86efac"></rect><rect width="1" height="1" x="0" y="4" fill="#86efac"></rect><rect width="1" height="1" x="1" y="4" fill="#86efac"></rect><rect width="1" height="1" x="2" y="4" fill="#86efac"></rect><rect width="1" height="1" x="3" y="4" fill="#86efac"></rect><rect width="1" height="1" x="4" y="4" fill="#86efac"></rect><rect width="1" height="1" x="5" y="4" fill="#86efac"></rect><rect width="1" height="1" x="6" y="4" fill="#86efac"></rect><rect width="1" height="1" x="7" y="4" fill="#86efac"></rect><rect width="1" height="1" x="9" y="4" fill="#86efac"></rect><rect width="1" height="1" x="10" y="4" fill="#86efac"></rect><rect width="1" height="1" x="0" y="5" fill="#86efac"></rect><rect width="1" height="1" x="1" y="5" fill="#86efac"></rect><rect width="1" height="1" x="2" y="5" fill="#86efac"></rect><rect width="1" height="1" x="3" y="5" fill="#86efac"></rect><rect width="1" height="1" x="4" y="5" fill="#86efac"></rect><rect width="1" height="1" x="6" y="5" fill="#86efac"></rect><rect width="1" height="1" x="8" y="5" fill="#86efac"></rect><rect width="1" height="1" x="14" y="5" fill="#86efac"></rect><rect width="1" height="1" x="0" y="6" fill="#86efac"></rect><rect width="1" height="1" x="1" y="6" fill="#86efac"></rect><rect width="1" height="1" x="2" y="6" fill="#86efac"></rect><rect width="1" height="1" x="3" y="6" fill="#86efac"></rect><rect width="1" height="1" x="4" y="6" fill="#86efac"></rect><rect width="1" height="1" x="5" y="6" fill="#86efac"></rect><rect width="1" height="1" x="7" y="6" fill="#86efac"></rect><rect width="1" height="1" x="8" y="6" fill="#86efac"></rect><rect width="1" height="1" x="12" y="6" fill="#86efac"></rect><rect width="1" height="1" x="15" y="6" fill="#86efac"></rect><rect width="1" height="1" x="16" y="6" fill="#86efac"></rect><rect width="1" height="1" x="0" y="7" fill="#86efac"></rect><rect width="1" height="1" x="1" y="7" fill="#86efac"></rect><rect width="1" height="1" x="2" y="7" fill="#86efac"></rect><rect width="1" height="1" x="3" y="7" fill="#86efac"></rect><rect width="1" height="1" x="4" y="7" fill="#86efac"></rect><rect width="1" height="1" x="5" y="7" fill="#86efac"></rect><rect width="1" height="1" x="8" y="7" fill="#86efac"></rect><rect width="1" height="1" x="9" y="7" fill="#86efac"></rect><rect width="1" height="1" x="14" y="7" fill="#86efac"></rect><rect width="1" height="1" x="15" y="7" fill="#86efac"></rect><rect width="1" height="1" x="19" y="7" fill="#86efac"></rect><rect width="1" height="1" x="0" y="8" fill="#86efac"></rect><rect width="1" height="1" x="1" y="8" fill="#86efac"></rect><rect width="1" height="1" x="2" y="8" fill="#86efac"></rect><rect width="1" height="1" x="3" y="8" fill="#86efac"></rect><rect width="1" height="1" x="4" y="8" fill="#86efac"></rect><rect width="1" height="1" x="6" y="8" fill="#86efac"></rect><rect width="1" height="1" x="7" y="8" fill="#86efac"></rect><rect width="1" height="1" x="8" y="8" fill="#86efac"></rect><rect width="1" height="1" x="12" y="8" fill="#86efac"></rect><rect width="1" height="1" x="16" y="8" fill="#86efac"></rect><rect width="1" height="1" x="18" y="8" fill="#86efac"></rect><rect width="1" height="1" x="0" y="9" fill="#86efac"></rect><rect width="1" height="1" x="1" y="9" fill="#86efac"></rect><rect width="1" height="1" x="2" y="9" fill="#86efac"></rect><rect width="1" height="1" x="3" y="9" fill="#86efac"></rect><rect width="1" height="1" x="4" y="9" fill="#86efac"></rect><rect width="1" height="1" x="5" y="9" fill="#86efac"></rect><rect width="1" height="1" x="6" y="9" fill="#86efac"></rect><rect width="1" height="1" x="7" y="9" fill="#86efac"></rect><rect width="1" height="1" x="9" y="9" fill="#86efac"></rect><rect width="1" height="1" x="10" y="9" fill="#86efac"></rect><rect width="1" height="1" x="16" y="9" fill="#86efac"></rect><rect width="1" height="1" x="0" y="10" fill="#86efac"></rect><rect width="1" height="1" x="1" y="10" fill="#86efac"></rect><rect width="1" height="1" x="2" y="10" fill="#86efac"></rect><rect width="1" height="1" x="3" y="10" fill="#86efac"></rect><rect width="1" height="1" x="4" y="10" fill="#86efac"></rect><rect width="1" height="1" x="5" y="10" fill="#86efac"></rect><rect width="1" height="1" x="6" y="10" fill="#86efac"></rect><rect width="1" height="1" x="7" y="10" fill="#86efac"></rect><rect width="1" height="1" x="9" y="10" fill="#86efac"></rect><rect width="1" height="1" x="11" y="10" fill="#86efac"></rect><rect width="1" height="1" x="12" y="10" fill="#86efac"></rect><rect width="1" height="1" x="15" y="10" fill="#86efac"></rect><rect width="1" height="1" x="18" y="10" fill="#86efac"></rect><rect width="1" height="1" x="0" y="11" fill="#86efac"></rect><rect width="1" height="1" x="1" y="11" fill="#86efac"></rect><rect width="1" height="1" x="2" y="11" fill="#86efac"></rect><rect width="1" height="1" x="3" y="11" fill="#86efac"></rect><rect width="1" height="1" x="4" y="11" fill="#86efac"></rect><rect width="1" height="1" x="5" y="11" fill="#86efac"></rect><rect width="1" height="1" x="6" y="11" fill="#86efac"></rect><rect width="1" height="1" x="7" y="11" fill="#86efac"></rect><rect width="1" height="1" x="8" y="11" fill="#86efac"></rect><rect width="1" height="1" x="12" y="11" fill="#86efac"></rect><rect width="1" height="1" x="17" y="11" fill="#86efac"></rect><rect width="1" height="1" x="0" y="12" fill="#86efac"></rect><rect width="1" height="1" x="1" y="12" fill="#86efac"></rect><rect width="1" height="1" x="2" y="12" fill="#86efac"></rect><rect width="1" height="1" x="3" y="12" fill="#86efac"></rect><rect width="1" height="1" x="4" y="12" fill="#86efac"></rect><rect width="1" height="1" x="5" y="12" fill="#86efac"></rect><rect width="1" height="1" x="6" y="12" fill="#86efac"></rect><rect width="1" height="1" x="7" y="12" fill="#86efac"></rect><rect width="1" height="1" x="9" y="12" fill="#86efac"></rect><rect width="1" height="1" x="13" y="12" fill="#86efac"></rect><rect width="1" height="1" x="18" y="12" fill="#86efac"></rect><rect width="1" height="1" x="19" y="12" fill="#86efac"></rect><rect width="1" height="1" x="0" y="13" fill="#86efac"></rect><rect width="1" height="1" x="1" y="13" fill="#86efac"></rect><rect width="1" height="1" x="2" y="13" fill="#86efac"></rect><rect width="1" height="1" x="3" y="13" fill="#86efac"></rect><rect width="1" height="1" x="4" y="13" fill="#86efac"></rect><rect width="1" height="1" x="5" y="13" fill="#86efac"></rect><rect width="1" height="1" x="6" y="13" fill="#86efac"></rect><rect width="1" height="1" x="8" y="13" fill="#86efac"></rect><rect width="1" height="1" x="11" y="13" fill="#86efac"></rect><rect width="1" height="1" x="12" y="13" fill="#86efac"></rect><rect width="1" height="1" x="0" y="14" fill="#86efac"></rect><rect width="1" height="1" x="1" y="14" fill="#86efac"></rect><rect width="1" height="1" x="2" y="14" fill="#86efac"></rect><rect width="1" height="1" x="3" y="14" fill="#86efac"></rect><rect width="1" height="1" x="4" y="14" fill="#86efac"></rect><rect width="1" height="1" x="5" y="14" fill="#86efac"></rect><rect width="1" height="1" x="6" y="14" fill="#86efac"></rect><rect width="1" height="1" x="7" y="14" fill="#86efac"></rect><rect width="1" height="1" x="9" y="14" fill="#86efac"></rect><rect width="1" height="1" x="12" y="14" fill="#86efac"></rect><rect width="1" height="1" x="13" y="14" fill="#86efac"></rect><rect width="1" height="1" x="0" y="15" fill="#86efac"></rect><rect width="1" height="1" x="1" y="15" fill="#86efac"></rect><rect width="1" height="1" x="2" y="15" fill="#86efac"></rect><rect width="1" height="1" x="3" y="15" fill="#86efac"></rect><rect width="1" height="1" x="4" y="15" fill="#86efac"></rect><rect width="1" height="1" x="5" y="15" fill="#86efac"></rect><rect width="1" height="1" x="6" y="15" fill="#86efac"></rect><rect width="1" height="1" x="8" y="15" fill="#86efac"></rect><rect width="1" height="1" x="9" y="15" fill="#86efac"></rect><rect width="1" height="1" x="10" y="15" fill="#86efac"></rect><rect width="1" height="1" x="14" y="15" fill="#86efac"></rect><rect width="1" height="1" x="16" y="15" fill="#86efac"></rect><rect width="1" height="1" x="19" y="15" fill="#86efac"></rect><rect width="1" height="1" x="0" y="16" fill="#86efac"></rect><rect width="1" height="1" x="1" y="16" fill="#86efac"></rect><rect width="1" height="1" x="2" y="16" fill="#86efac"></rect><rect width="1" height="1" x="3" y="16" fill="#86efac"></rect><rect width="1" height="1" x="4" y="16" fill="#86efac"></rect><rect width="1" height="1" x="5" y="16" fill="#86efac"></rect><rect width="1" height="1" x="6" y="16" fill="#86efac"></rect><rect width="1" height="1" x="7" y="16" fill="#86efac"></rect><rect width="1" height="1" x="8" y="16" fill="#86efac"></rect><rect width="1" height="1" x="9" y="16" fill="#86efac"></rect><rect width="1" height="1" x="11" y="16" fill="#86efac"></rect><rect width="1" height="1" x="17" y="16" fill="#86efac"></rect><rect width="1" height="1" x="0" y="17" fill="#86efac"></rect><rect width="1" height="1" x="1" y="17" fill="#86efac"></rect><rect width="1" height="1" x="2" y="17" fill="#86efac"></rect><rect width="1" height="1" x="3" y="17" fill="#86efac"></rect><rect width="1" height="1" x="4" y="17" fill="#86efac"></rect><rect width="1" height="1" x="5" y="17" fill="#86efac"></rect><rect width="1" height="1" x="6" y="17" fill="#86efac"></rect><rect width="1" height="1" x="7" y="17" fill="#86efac"></rect><rect width="1" height="1" x="9" y="17" fill="#86efac"></rect><rect width="1" height="1" x="10" y="17" fill="#86efac"></rect><rect width="1" height="1" x="12" y="17" fill="#86efac"></rect><rect width="1" height="1" x="14" y="17" fill="#86efac"></rect><rect width="1" height="1" x="0" y="18" fill="#86efac"></rect><rect width="1" height="1" x="1" y="18" fill="#86efac"></rect><rect width="1" height="1" x="2" y="18" fill="#86efac"></rect><rect width="1" height="1" x="3" y="18" fill="#86efac"></rect><rect width="1" height="1" x="4" y="18" fill="#86efac"></rect><rect width="1" height="1" x="5" y="18" fill="#86efac"></rect><rect width="1" height="1" x="6" y="18" fill="#86efac"></rect><rect width="1" height="1" x="7" y="18" fill="#86efac"></rect><rect width="1" height="1" x="8" y="18" fill="#86efac"></rect><rect width="1" height="1" x="9" y="18" fill="#86efac"></rect><rect width="1" height="1" x="10" y="18" fill="#86efac"></rect><rect width="1" height="1" x="13" y="18" fill="#86efac"></rect><rect width="1" height="1" x="15" y="18" fill="#86efac"></rect><rect width="1" height="1" x="17" y="18" fill="#86efac"></rect><rect width="1" height="1" x="19" y="18" fill="#86efac"></rect><rect width="1" height="1" x="0" y="19" fill="#86efac"></rect><rect width="1" height="1" x="1" y="19" fill="#86efac"></rect><rect width="1" height="1" x="2" y="19" fill="#86efac"></rect><rect width="1" height="1" x="3" y="19" fill="#86efac"></rect><rect width="1" height="1" x="4" y="19" fill="#86efac"></rect><rect width="1" height="1" x="5" y="19" fill="#86efac"></rect><rect width="1" height="1" x="6" y="19" fill="#86efac"></rect><rect width="1" height="1" x="9" y="19" fill="#86efac"></rect>
  </pattern></defs><rect width="100%" height="100%" fill="url(#pppixelate-pattern)"></rect></svg>