<svg version="1.2" xmlns="http://www.w3.org/2000/svg" viewBox="0 0 900 900" width="900" height="900">
	<title>1268-ai</title>
	<style>
		.s0 { fill: #ffffff } 
		.s1 { fill: #000000 } 
		.s2 { fill: #000000 } 
	</style>
	<g id="_Artboards_">
	</g>
	<g id="Layer 2">
		<path id="&lt;Path&gt;" class="s0" d="m900 900h-900v-900h900z"/>
	</g>
	<g id="Layer 1">
		<g id="&lt;Group&gt;">
			<g id="&lt;Group&gt;">
				<g id="&lt;Group&gt;">
					<path id="&lt;Path&gt;" class="s0" d="m604.4 753.3c2.2 13.5 0 35.2-14.9 52.2-15 16.9-9 18.5-15.9 25.5-7 6.9-27.1 17.5-44.5 29.9-17.3 12.3-29.4 22.1-39.8 25.3-10.3 3.1-25.4 0-37.8 0-12.4 0-27.5 3.1-37.8 0-10.4-3.2-22.5-13-39.8-25.3-12.7-9.1-26.9-17.2-36.3-23.6-3.5-2.3-6.3-4.5-8.2-6.3-6.4-6.4-1.8-8.3-12.7-21.8q0 0 0 0-1.4-1.7-3.2-3.7c-14.9-17-17.1-38.7-14.9-52.2 2.2-13.6 4.4-37.7 4.4-54 0-6.1-1.4-13.9-3.2-21.4-2.2-9.4-5.1-18.2-6.3-21.8 0-0.4 33.8-7 70.2-13.9 42.2-8 87.8-16.6 87.8-16.6 0 0 158.3 29.7 158 30.5-2.2 6.4-9.5 29.4-9.5 43.2 0 16.3 2.2 40.4 4.4 54z"/>
				</g>
				<g id="&lt;Group&gt;">
					<path id="&lt;Path&gt;" class="s1" d="m451.5 752.3l-103.8-14.3 4.5 22.7c0 3.2 1.4 9.7 7 12.1 1.8 6 4.3 7.8 5.8 8 1.5 0.3 3.1-2.9 3.1-2.9 0 0 2 9.8 8 8.7 0.6 2.7 1.3 3.3 1.7 3.7 0.4 0.3 1.2 5.5 3.9 5.5 2.8-0.1 4.1-2.1 4.7-3.1 0.6-1 3-1.9 3.6-1.6 0.5 0.3 6.9 17.1 14.4 21.3-2.8-5.4-2.2-9.2-0.9-10.6 1.3-1.5 3.8-3.1 5-2.9 1.3 0.2 5.2 7.3 8.1 7.8 2.9 0.4 5.9-2 7.2-2.6 1.2-0.6 4.3-1.8 7.9 1.6 3.6 3.3 5.2 5.6 7.9 5.6 2.6 0 5.9-7.2 11.9-7.2 6 0 9.3 7.2 11.9 7.2 2.7 0 4.3-2.3 7.9-5.6 3.6-3.4 6.7-2.2 7.9-1.6 1.3 0.6 4.3 3 7.2 2.6 2.9-0.5 6.8-7.6 8.1-7.8 1.2-0.2 3.7 1.4 5 2.9 1.3 1.4 1.9 5.2-0.9 10.6 7.5-4.2 13.9-21 14.4-21.3 0.6-0.3 3 0.6 3.6 1.6 0.6 1 1.9 3 4.7 3.1 2.7 0 3.5-5.2 3.9-5.5 0.4-0.4 1.1-1 1.7-3.7 6 1.1 8-8.7 8-8.7 0 0 1.6 3.2 3.1 2.9 1.5-0.2 4-2 5.8-8 5.6-2.4 7-8.9 7-12.1l4.5-22.7z"/>
				</g>
				<g id="&lt;Group&gt;">
					<path id="&lt;Path&gt;" class="s1" d="m600 699.3c0-13.8 7.3-36.8 9.5-43.2 0-0.4-33.8-7-70.2-13.9l-4.4 4.9 13.7 100.5 1.2 12.2 0.5 2.6c0 0 3.7 1 5.8 5.9 2.1 4.9 7.8 12.2 9.4 20.3 0.7-12.8-2.1-18.8-2.9-19.9 0.9-7.1 5.6-12.9 8.6-22.9 3-10.1 5.7-14 5.7-14 0 0-2.7 15.1-3.2 18.6 5.4-11.2 14.5-44.5 15.2-59 2.3 21.8-8.5 63.7-13.1 70.4 4.6-3.1 9.1-17.3 9.1-17.3 0 0-3.6 16.9-5.3 20.1-1.7 3.1-6.2 8.6-7.2 15.7 2.3-4.8 5.4-8.8 6.9-9.7 1.4-0.9 2.9-2.7 3-2.9-0.1 0.3-2.7 5.5-5 8.2-2.4 2.8-5.8 22.1-5.8 22.1l-0.2-10.2c0 0-1.3 6.3-2.4 12.9-1.1 6.7-3.5 10.7-3.5 10.7 0 0-1-12-0.3-15.5-3.1 8.5-4.3 13-4.8 16.5-0.6 3.6-5.2 10.7-5.2 10.7 0 0 3-14.1 2.4-21.8-1.8 7.5-5.4 23.5-9.6 27.6 2.7-7.3 1.3-22.6 1.3-22.6 0 0-3.4 22.5-10.2 29.2 2.9-7 3.7-19.2 3.8-22.8-2 8-8.6 26.1-13.1 30.2 3.7-9.9 3.2-24.2 3.2-24.2 0 0-5.7 22.7-12.4 31.3 3-9 3-22.7 2.6-26.9-1.5 10.5-4.1 23.3-12.9 33.3 4.2-9.6 5.2-25.8 5.2-25.8 0 0-7.8 25.1-13.8 32-0.9 1.1-2.7 1.3-2.7 1.3 0 0 7.6-18.4 8.3-27.3-6.2 16.3-12.9 29-17.3 31.5-4.4 2.5-18.7-0.5-18.7-0.5 0 0 9.1 5.7 10.4 7.7-7.5-3.4-23.6-8.2-30.1-8.2-6.5 0-22.6 4.8-30.1 8.2 1.3-2 10.4-7.7 10.4-7.7 0 0-14.3 3-18.7 0.5-4.4-2.5-11.1-15.2-17.3-31.5 0.7 8.9 8.3 27.3 8.3 27.3 0 0-1.8-0.2-2.7-1.3-6-6.9-13.8-32-13.8-32 0 0 1 16.2 5.2 25.8-8.8-10-11.4-22.8-12.9-33.3-0.4 4.2-0.4 17.9 2.6 26.9-6.7-8.6-12.4-31.3-12.4-31.3 0 0-0.5 14.3 3.2 24.2-4.5-4.1-11.1-22.2-13.1-30.2 0.1 3.6 0.9 15.8 3.8 22.8-6.8-6.7-10.2-29.2-10.2-29.2 0 0-1.4 15.3 1.3 22.6-4.2-4.1-7.8-20.1-9.6-27.6-0.6 7.7 2.4 21.8 2.4 21.8 0 0-4.6-7.1-5.2-10.7-0.5-3.5-1.7-8-4.8-16.5 0.7 3.5-0.3 15.5-0.3 15.5 0 0-2.4-4-3.5-10.7-1.1-6.6-2.4-12.9-2.4-12.9l-0.2 10.2c0 0-3.4-19.3-5.8-22.1-2.3-2.7-4.9-7.9-5-8.2 0.1 0.2 1.6 2 3 2.9 1.5 0.9 4.6 4.9 6.9 9.7-1-7.1-5.5-12.6-7.2-15.7-1.7-3.2-5.3-20.1-5.3-20.1 0 0 4.5 14.2 9.1 17.3-4.6-6.7-15.4-48.6-13.1-70.4 0.7 14.5 9.8 47.8 15.2 59-0.5-3.5-3.2-18.6-3.2-18.6 0 0 2.7 3.9 5.7 14 3 10 7.7 15.8 8.6 22.9-0.8 1.1-3.6 7.1-2.9 19.9 1.6-8.1 7.3-15.4 9.4-20.3 2.1-4.9 5.8-5.9 5.8-5.9l0.5-2.6 1.2-12.2 13.7-100.5-4.4-4.9c-36.4 6.9-70.2 13.5-70.2 13.9 2.2 6.4 9.5 29.4 9.5 43.2 0 16.3-2.2 40.4-4.4 54-2.2 13.5 0 35.2 14.9 52.2 15 16.9 9 18.5 15.9 25.5 7 6.9 27.1 17.5 44.5 29.9 17.3 12.3 29.4 22.1 39.8 25.3 10.3 3.1 25.4 0 37.8 0 12.4 0 27.5 3.1 37.8 0 10.4-3.2 22.5-13 39.8-25.3 17.4-12.4 37.5-23 44.5-29.9 6.9-7 0.9-8.6 15.9-25.5 14.9-17 17.1-38.7 14.9-52.2-2.2-13.6-4.4-37.7-4.4-54z"/>
				</g>
				<g id="&lt;Group&gt;">
					<path id="&lt;Path&gt;" class="s0" d="m586.3 809.2q1.4-1.7 3.2-3.7c14.9-17 17.1-38.7 14.9-52.2-2.2-13.6-4.4-37.7-4.4-54 0-6.1 1.4-13.9 3.2-21.4-0.8-1.9-1.3-3.1-1.3-3.1 0 0 1.5-7.7 1.5-8.3 0-0.7-2.9-2.3-8.3-4.1 1.7 1.8 4.1 5.8 4 8.7-1.7-3.9-8.5-7.6-11.2-6.5 3.6 1.4 6.6 4.7 7.1 8.1 0.5 3.3 0.3 17.9-1.1 24.8-1.5 6.9-2.7 18.5-2.7 18.5 0 0 1.2-4.4 2.6-7 0 7 2.3 30.3 4.1 40.4 1.7 10.1 1.9 20-1 32.7-3 12.4-10.3 26.6-10.6 27.1z"/>
				</g>
				<g id="&lt;Group&gt;">
					<path id="&lt;Path&gt;" class="s1" d="m470.9 828.7c-3.8 9-2.5 14.4 17.4 26.6-11.8-10.8-16.7-22.2-17.4-26.6z"/>
				</g>
				<g id="&lt;Group&gt;">
					<path id="&lt;Path&gt;" class="s1" d="m508.7 806c1.9-4.5 3.5-9.4 5.4-10 1.8-0.5 8.9 3.9 11.1 12.4-4.6-6-6.5-7.7-9.9-7.5-3.3 0.3-6.6 5.1-6.6 5.1z"/>
				</g>
				<g id="&lt;Group&gt;">
					<path id="&lt;Path&gt;" class="s1" d="m550.7 770.8c-0.8 3.1-2.3 4.6-3.6 5.2-1.3 0.6-2.4 0.7-3.2 2.3-0.8 1.5-1.7 3.6-3.8 5-2 1.4-3.7 1.7-5.6 1.5-3.3 4.2-4.4 5.2-6.6 5.4-0.7 3.2-2.3 6.4-3.4 7.4 3-1.1 3.5-3.7 3.5-3.7 0 0 4.8-0.5 8.2-5.4 3.7 1.5 6.8 7.7 6.4 12.5 2.9-5.5-0.6-11.1-0.2-12.7 0.4-1.5 1.7-1.5 2.9-3.7 1.3-2.1 1.8-3.3 4-1.4 2.1 1.8 6.7 10.8 6.6 17.8 2.8-13.3-3.3-23.4-5.8-24.7 1.1-2.2 0.6-5.5 0.6-5.5z"/>
				</g>
				<g id="&lt;Group&gt;">
					<path id="&lt;Path&gt;" class="s0" d="m576.1 665.6c5.5 18.4 3.6 41.7-1.5 54.4-5.1 12.7-12.8 30.3-18 36.6 14.4-33.6 21-44.3 19.5-91z"/>
				</g>
				<g id="&lt;Group&gt;">
					<path id="&lt;Path&gt;" class="s0" d="m472.5 778.6c-4.5-0.9-14.8 0.3-17.5 0.9-0.2 0-0.3 0.2-0.3 0.3 0 7.9 1.4 21.6 9.7 27.5 2.3-5.6 3.7-9.7 3.7-9.7 0 0-0.2 5.2-0.7 6.4 3.7-6.1 5.6-15.6 5.4-25.1 0-0.1-0.1-0.2-0.3-0.3z"/>
				</g>
				<g id="&lt;Group&gt;">
					<path id="&lt;Path&gt;" class="s0" d="m492.6 776.8c0.6 6.1-0.8 19.2-6.4 26.1-5.3-2.1-9-12.3-9.6-15.6-0.4-2.5-0.1-7.4 0.2-9.5 0-0.6 0.5-1 1.1-1.1 1.8-0.2 5.6-0.6 7-1.1-1.8 1.3-4.3 1.8-4.3 1.8 0 0 7-0.7 10.3-1.7 0.8-0.3 1.6 0.3 1.7 1.1z"/>
				</g>
				<g id="&lt;Group&gt;">
					<path id="&lt;Path&gt;" class="s0" d="m474.8 795.3c0 1.2-1.1 3.2-1.1 3.2 0 0 1.3-0.6 2.4-0.6-0.8-1-1.3-2.6-1.3-2.6z"/>
				</g>
				<g id="&lt;Group&gt;">
					<path id="&lt;Path&gt;" class="s0" d="m497.2 773.4c-0.6 0.3-0.9 0.9-0.7 1.5 0.9 3.5 0.3 8.3 0 9.8-0.2 1.7 1.1 8 3.1 10-0.6-3 0.9-8.2 0.9-8.2 0 0 2.9 12.2 2.9 15.7 3.2-6 5.7-11.4 6.1-18.1 0.5-6.8-1.1-10.8-1.4-11.7-0.2-1-2.1-1.9-6.8-0.4-2.1 0.6-3.3 1.1-4.1 1.4z"/>
				</g>
				<g id="&lt;Group&gt;">
					<path id="&lt;Path&gt;" class="s1" d="m507.3 775.6c1.1 4.4 0.7 13.1-1.6 18.1-0.1-8.6 1.2-16.3 1.6-18.1z"/>
				</g>
				<g id="&lt;Group&gt;">
					<path id="&lt;Path&gt;" class="s0" d="m521.1 766.3c2.4 4.7 2.7 12.8 2.2 15.8-0.5-6.4-2.1-11.4-3.3-13.4 0.7 6.1-1.7 16-3.1 18.8-2.6-4.3-4.3-13-4.4-18.5 0-0.3 0.2-0.6 0.5-0.7 2.9-0.6 6.1-1.8 7.3-2.2 0.3-0.1 0.6 0 0.8 0.2z"/>
				</g>
				<g id="&lt;Group&gt;">
					<path id="&lt;Path&gt;" class="s0" d="m523.8 763.8l0.5 1.3c0.1 0.2 0.3 0.3 0.5 0.2 1-0.7 3.9-2.5 5-2.2 1.3 0.4 1.4 9.9 1.1 11.8 1.7-6 1.3-11.8 0.4-14.2 0-0.2-0.3-0.3-0.5-0.2l-6.8 2.9c-0.2 0-0.3 0.2-0.2 0.4z"/>
				</g>
				<g id="&lt;Group&gt;">
					<path id="&lt;Path&gt;" class="s0" d="m539.5 756.7c1.5 4.6 1.5 12.8-1 18.8-1.7-1.7-3.1-6.5-3.1-6.5l2.3 3.7c0 0 1.5-3.9 1.7-8.4 0.2-4.6-0.8-5.3-1.6-5.4-0.9-0.1-2.3 1.1-2.4 1.4-0.1 0.3 0.1 1.8-0.3 2.8 0-2-0.4-3.4-0.6-4.1-0.1-0.2 0-0.5 0.3-0.6l4-2c0.3-0.2 0.6 0 0.7 0.3z"/>
				</g>
				<g id="&lt;Group&gt;">
					<path id="&lt;Path&gt;" class="s0" d="m545.1 767.7c2.5-3.3 3.5-7.5 3.5-8.5 0-0.8-0.3-5.5-0.7-7.8 0-0.3-0.3-0.4-0.5-0.2-1.6 1.4-4.2 2.8-5 3.3-0.2 0.1-0.2 0.2-0.2 0.4 0.3 0.8 1.2 3.5 1.3 5.6 0.7-2.8 0.3-5.2 0.3-5.2l2-1.5c0.2-0.2 0.4-0.1 0.5 0.2 0.2 1.2 0.9 4.6 0.8 5.6-0.1 1.3-1.2 6.7-2 8.1z"/>
				</g>
				<g id="&lt;Group&gt;">
					<path id="&lt;Path&gt;" class="s0" d="m572.5 816.4c-3.6 12.9-13 17.7-15.1 18.8-2.1 1.1-34.5 23-52.5 35.2-17.9 12.3-20.9 12.2-26.7 11.7-5.9-0.5-17.8-1.8-26.7-1.8-8.9 0-20.8 1.3-26.7 1.8-5.8 0.5-8.8 0.6-26.7-11.7-18-12.2-50.4-34.1-52.5-35.2-2.1-1.1-11.5-5.9-15.1-18.8-3.5-12.8-5.4-32.7-10.7-41.3 3.2 13.6 6.2 30 6.9 36.1 0.7 6 3.9 18.3 8.3 21.4 0.9 0.6 1.7 2.3 2.6 4.7 9.4 6.4 23.6 14.5 36.3 23.6 17.3 12.3 29.4 22.1 39.8 25.3 10.3 3.1 25.4 0 37.8 0 12.4 0 27.5 3.1 37.8 0 10.4-3.2 22.5-13 39.8-25.3 12.7-9.1 26.9-17.2 36.3-23.6 0.9-2.4 1.7-4.1 2.6-4.7 4.4-3.1 7.6-15.4 8.3-21.4 0.7-6.1 3.7-22.5 6.9-36.1-5.3 8.6-7.2 28.5-10.7 41.3z"/>
				</g>
				<g id="&lt;Group&gt;">
					<path id="&lt;Path&gt;" class="s0" d="m316.7 809.2q-1.4-1.7-3.2-3.7c-14.9-17-17.1-38.7-14.9-52.2 2.2-13.6 4.4-37.7 4.4-54 0-6.1-1.4-13.9-3.2-21.4 0.8-1.9 1.3-3.1 1.3-3.1 0 0-1.5-7.7-1.5-8.3 0-0.7 2.9-2.3 8.3-4.1-1.7 1.8-4.1 5.8-4 8.7 1.7-3.9 8.5-7.6 11.2-6.5-3.6 1.4-6.6 4.7-7.1 8.1-0.5 3.3-0.3 17.9 1.1 24.8 1.5 6.9 2.7 18.5 2.7 18.5 0 0-1.2-4.4-2.6-7 0 7-2.3 30.3-4.1 40.4-1.7 10.1-1.9 20 1 32.7 3 12.4 10.3 26.6 10.6 27.1z"/>
				</g>
				<g id="&lt;Group&gt;">
					<path id="&lt;Compound Path&gt;" fill-rule="evenodd" class="s1" d="m477.6 889.9c-4.3 0-8.9-0.4-13.4-0.8-4.2-0.3-8.7-0.7-12.7-0.7-4 0-8.5 0.4-12.7 0.7-9.1 0.8-18.4 1.5-25.8-0.8-8.8-2.7-18.9-10-31.6-19.2q-4.2-3-8.9-6.4c-7.4-5.3-15.5-10.3-22.6-14.8-5-3.1-9.7-6-13.6-8.7-4-2.7-6.6-4.8-8.5-6.6-3.2-3.3-4-5.6-4.9-8.3-1-2.9-2.3-6.5-8-13.6v-0.1q-1.4-1.7-3.1-3.6c-15.1-17.1-17.9-39.2-15.5-54.1 2.1-12.9 4.4-37.1 4.4-53.6 0-5.2-1.1-12.2-3.1-20.8-2.2-9.3-5-18-6.3-21.6l-0.1-0.4v-0.4c0-1.9 1.6-2.3 3.3-2.7q1.5-0.3 4.4-0.9c3.5-0.8 8.8-1.8 15.6-3.2 11.6-2.2 28.1-5.4 48.8-9.4 41.7-7.9 87.3-16.4 87.8-16.5l0.4-0.1 0.4 0.1c0.4 0 39.8 7.4 78.8 14.8 22.9 4.4 41.2 7.9 54.3 10.5 25.8 5 25.8 5 26.5 6.2l0.5 1-0.3 1c-2.4 6.8-9.4 29.3-9.4 42.4 0 16.5 2.3 40.7 4.4 53.6 2.4 14.9-0.4 37-15.5 54.1-8.4 9.6-9.9 13.9-11.1 17.3-0.9 2.7-1.7 5-4.9 8.3-4.2 4.1-12.5 9.3-22.1 15.3-7.1 4.5-15.2 9.5-22.6 14.8q-4.7 3.4-8.9 6.4c-12.7 9.2-22.8 16.5-31.6 19.2-3.7 1.2-7.9 1.6-12.4 1.6zm-26.1-6c4.2 0 8.7 0.3 13.1 0.7 8.6 0.7 17.5 1.4 24-0.6 8.2-2.5 17.9-9.6 30.3-18.6q4.2-3.1 8.9-6.4c7.6-5.4 15.7-10.5 22.9-15 9.4-5.8 17.5-10.9 21.2-14.6 2.5-2.6 3.1-4.1 3.9-6.5 1.2-3.7 2.9-8.7 12-18.9 14-16 16.6-36.5 14.4-50.4-2.2-13-4.4-37.6-4.4-54.3 0-12.6 5.7-32.5 8.8-41.6-14.6-3.3-98.2-19.1-155.1-29.7-4.7 0.8-47.8 8.9-87.4 16.4-46.6 8.9-62.6 12.2-67.7 13.3 1.5 4.4 3.8 11.8 5.6 19.7 2.2 9 3.2 16.4 3.2 21.9 0 16.7-2.2 41.3-4.4 54.3-2.2 13.9 0.4 34.4 14.4 50.4q1.7 1.9 3.2 3.6v0.2c6.3 7.7 7.8 12 8.8 15.1 0.8 2.4 1.4 3.9 3.9 6.5 1.6 1.6 4.1 3.5 7.8 6 3.8 2.6 8.4 5.5 13.4 8.6 7.2 4.5 15.3 9.6 22.9 15q4.7 3.3 8.9 6.4c12.4 9 22.1 16.1 30.3 18.6 6.5 2 15.4 1.3 24 0.6 4.4-0.4 8.9-0.7 13.1-0.7z"/>
				</g>
				<g id="&lt;Group&gt;">
					<path id="&lt;Path&gt;" class="s1" d="m432.1 828.7c3.8 9 2.5 14.4-17.4 26.6 11.8-10.8 16.7-22.2 17.4-26.6z"/>
				</g>
				<g id="&lt;Group&gt;">
					<path id="&lt;Path&gt;" class="s1" d="m477.2 806.8c-2.5 0.1-5.7 5.6-12.9 6.7-9 1.3-9-3.1-12.8-3.1-3.8 0-3.8 4.4-12.8 3.1-7.2-1.1-10.4-6.6-12.9-6.7-2.5-0.2-6.7 6-19-0.8 2.3 4.3 6.4 6.5 7.9 8.4 1.5 1.9 4.7 6.4 4.7 6.4 0 0-2.6-6.6-1.9-8.6 3.7 1.7 9.6 0.1 10.4 0.2 0.8 0 7.8 3.6 10.9 6.2 3 2.7 6.4 11.1 6.4 11.1 0 0-1-6.6 1.9-9.7 2.9-3.1 3.8-3.7 4.4-3.7 0.6 0 1.5 0.6 4.4 3.7 2.9 3.1 1.9 9.7 1.9 9.7 0 0 3.4-8.4 6.4-11.1 3.1-2.6 10.1-6.2 10.9-6.2 0.8-0.1 6.7 1.5 10.4-0.2 0.7 2-1.9 8.6-1.9 8.6 0 0 3.2-4.5 4.7-6.4 1.5-1.9 5.6-4.1 7.9-8.4-12.3 6.8-16.5 0.6-19 0.8z"/>
				</g>
				<g id="&lt;Group&gt;">
					<path id="&lt;Path&gt;" class="s1" d="m394.3 806c-1.9-4.5-3.5-9.4-5.4-10-1.8-0.5-8.9 3.9-11.1 12.4 4.6-6 6.5-7.7 9.9-7.5 3.3 0.3 6.6 5.1 6.6 5.1z"/>
				</g>
				<g id="&lt;Group&gt;">
					<path id="&lt;Path&gt;" class="s1" d="m352.3 770.8c0.8 3.1 2.3 4.6 3.6 5.2 1.3 0.6 2.4 0.7 3.2 2.3 0.8 1.5 1.7 3.6 3.8 5 2 1.4 3.7 1.7 5.6 1.5 3.3 4.2 4.4 5.2 6.6 5.4 0.7 3.2 2.3 6.4 3.4 7.4-3-1.1-3.5-3.7-3.5-3.7 0 0-4.8-0.5-8.2-5.4-3.7 1.5-6.8 7.7-6.4 12.5-2.9-5.5 0.6-11.1 0.2-12.7-0.4-1.5-1.7-1.5-2.9-3.7-1.3-2.1-1.8-3.3-4-1.4-2.1 1.8-6.7 10.8-6.6 17.8-2.8-13.3 3.3-23.4 5.8-24.7-1.1-2.2-0.6-5.5-0.6-5.5z"/>
				</g>
				<g id="&lt;Group&gt;">
					<path id="&lt;Path&gt;" class="s0" d="m326.9 665.6c-5.5 18.4-3.6 41.7 1.5 54.4 5.1 12.7 12.8 30.3 18 36.6-14.4-33.6-21-44.3-19.5-91z"/>
				</g>
				<g id="&lt;Group&gt;">
					<path id="&lt;Path&gt;" class="s0" d="m451.5 794.9c0 0-1.6 2.4-2.2 4.1 0 0 1.3 0.3 2.2 0.3 0.9 0 2.2-0.3 2.2-0.3-0.6-1.7-2.2-4.1-2.2-4.1z"/>
				</g>
				<g id="&lt;Group&gt;">
					<path id="&lt;Path&gt;" class="s0" d="m430.5 778.6c4.5-0.9 14.8 0.3 17.5 0.9 0.2 0 0.3 0.2 0.3 0.3 0 7.9-1.4 21.6-9.7 27.5-2.3-5.6-3.7-9.7-3.7-9.7 0 0 0.2 5.2 0.7 6.4-3.7-6.1-5.6-15.6-5.4-25.1 0-0.1 0.1-0.2 0.3-0.3z"/>
				</g>
				<g id="&lt;Group&gt;">
					<path id="&lt;Path&gt;" class="s0" d="m410.4 776.8c-0.6 6.1 0.8 19.2 6.4 26.1 5.3-2.1 9-12.3 9.6-15.6 0.4-2.5 0.1-7.4-0.2-9.5 0-0.6-0.5-1-1.1-1.1-1.8-0.2-5.6-0.6-7-1.1 1.8 1.3 4.3 1.8 4.3 1.8 0 0-7-0.7-10.3-1.7-0.8-0.3-1.6 0.3-1.7 1.1z"/>
				</g>
				<g id="&lt;Group&gt;">
					<path id="&lt;Path&gt;" class="s0" d="m428.2 795.3c0 1.2 1.1 3.2 1.1 3.2 0 0-1.3-0.6-2.4-0.6 0.8-1 1.3-2.6 1.3-2.6z"/>
				</g>
				<g id="&lt;Group&gt;">
					<path id="&lt;Path&gt;" class="s0" d="m405.8 773.4c0.6 0.3 0.9 0.9 0.7 1.5-0.9 3.5-0.3 8.3 0 9.8 0.2 1.7-1.1 8-3.1 10 0.6-3-0.9-8.2-0.9-8.2 0 0-2.9 12.2-2.9 15.7-3.2-6-5.7-11.4-6.1-18.1-0.5-6.8 1.1-10.8 1.4-11.7 0.2-1 2.1-1.9 6.8-0.4 2.1 0.6 3.3 1.1 4.1 1.4z"/>
				</g>
				<g id="&lt;Group&gt;">
					<path id="&lt;Path&gt;" class="s1" d="m395.7 775.6c-1.1 4.4-0.7 13.1 1.6 18.1 0.1-8.6-1.2-16.3-1.6-18.1z"/>
				</g>
				<g id="&lt;Group&gt;">
					<path id="&lt;Path&gt;" class="s0" d="m381.9 766.3c-2.4 4.7-2.7 12.8-2.2 15.8 0.5-6.4 2.1-11.4 3.3-13.4-0.7 6.1 1.7 16 3.1 18.8 2.6-4.3 4.3-13 4.4-18.5 0-0.3-0.2-0.6-0.5-0.7-2.9-0.6-6.1-1.8-7.3-2.2-0.3-0.1-0.6 0-0.8 0.2z"/>
				</g>
				<g id="&lt;Group&gt;">
					<path id="&lt;Path&gt;" class="s0" d="m379.2 763.8l-0.5 1.3c-0.1 0.2-0.3 0.3-0.5 0.2-1-0.7-3.9-2.5-5-2.2-1.3 0.4-1.4 9.9-1.1 11.8-1.7-6-1.3-11.8-0.4-14.2 0-0.2 0.3-0.3 0.5-0.2l6.8 2.9c0.2 0 0.3 0.2 0.2 0.4z"/>
				</g>
				<g id="&lt;Group&gt;">
					<path id="&lt;Path&gt;" class="s0" d="m363.5 756.7c-1.5 4.6-1.5 12.8 1 18.8 1.7-1.7 3.1-6.5 3.1-6.5l-2.3 3.7c0 0-1.5-3.9-1.7-8.4-0.2-4.6 0.8-5.3 1.6-5.4 0.9-0.1 2.3 1.1 2.4 1.4 0.1 0.3-0.1 1.8 0.3 2.8 0-2 0.4-3.4 0.6-4.1 0.1-0.2 0-0.5-0.3-0.6l-4-2c-0.3-0.2-0.6 0-0.7 0.3z"/>
				</g>
				<g id="&lt;Group&gt;">
					<path id="&lt;Path&gt;" class="s0" d="m357.9 767.7c-2.5-3.3-3.5-7.5-3.5-8.5 0-0.8 0.3-5.5 0.7-7.8 0-0.3 0.3-0.4 0.5-0.2 1.6 1.4 4.2 2.8 5 3.3 0.2 0.1 0.2 0.2 0.2 0.4-0.3 0.8-1.2 3.5-1.3 5.6-0.7-2.8-0.3-5.2-0.3-5.2l-2-1.5c-0.2-0.2-0.4-0.1-0.5 0.2-0.2 1.2-0.9 4.6-0.8 5.6 0.1 1.3 1.2 6.7 2 8.1z"/>
				</g>
			</g>
			<path id="Forma 1" class="s2" d="m348 702h204.2v53.4h-204.2z"/>
			<g id="&lt;Group&gt;">
				<g id="&lt;Group&gt;">
					<path id="&lt;Path&gt;" class="s0" d="m649.2 543.7c-2-6.8-6.9-11.9-10.2-20.6-5.4-16.7 9.5-37.4 8.3-49-1.1-11.7 1.5-76.2 0-85.2-1.4-8.9-9.8-34.9-20.4-56-28.9-57.6-72-74.1-95.8-86.8-11.3-3.3-22.3-7.5-33.5-10.9-13.8-4.3-25.9-8.1-39.7-9-7.1-0.4-11 0.4-18.8 1.6-7.2 1.2-14.5 2.3-21.7 3.9-6.4 1.4-12.5 3.7-18.8 5.3-3.4 0.9-6.8 1.5-10.1 2.2q-0.9 0.3-1.2 0.3-1.2 0.5-2.3 1c-1.7 0.7-3.4 1.5-5.1 2.4-1.4 0.7-2.8 1.1-4.2 1.2q-1.8 0.9-3.4 1.8c-23.7 12.7-67.1 29.1-96.2 87-10.6 21.1-19 47.1-20.4 56-1.5 9 1.1 73.5 0 85.2-1.2 11.6 13.7 32.3 8.3 49-3.3 8.7-8.2 13.8-10.2 20.6-2 6.8-2.8 21.7 2.8 27.3 5.5 5.6 8.9 10.2 12.5 19.3 3.6 9.2 14.1 14.5 16.9 16.1 2.8 1.6 6.8 0 6.8 0 12.6 1.9 25.7-3.9 40.4-2.1 14.8 1.8 26.9 17.7 26.9 29.3 0 7.9-12.3 27.4-6.2 41-2.8 8.5-5 16.3-0.1 22.9 4.9 6.5 22.9 13.6 29.9 16.1 7 2.5 29.9 11.9 67.8 12.1 37.9-0.2 60.8-9.6 67.8-12.1 7-2.5 25-9.6 29.9-16.1 4.9-6.6 2.7-14.4-0.1-22.9 6.1-13.6-6.2-33.1-6.2-41 0-11.6 12.1-27.5 26.9-29.3 14.7-1.8 27.8 4 40.4 2.1 0 0 4 1.6 6.8 0 2.8-1.6 13.3-6.9 16.9-16.1 3.6-9.1 7-13.7 12.5-19.3 5.6-5.6 4.8-20.5 2.8-27.3z"/>
				</g>
				<g id="&lt;Group&gt;">
					<path id="&lt;Path&gt;" class="s1" d="m635.4 539.4c-4.6-9.1-11.1-21.8-13-36.2-1.8 13 2.7 21.4 4.3 33.5 1.6 12.2 0.8 29.4-5.9 39.5 3.5-15.6 2.3-38-0.2-47 0.2 25.9-5.9 50.1-14.2 61.3 5.2-16.6 6.4-37.5 6.4-37.5 0 0-3.8 16.6-11.5 26.6 4.4-12.3 4.1-24.5 4.1-24.5 0 0-7 24.8-19.4 31.6l3.5-5.9c0 0-3.5 0.7-7.6-0.1-4-0.8-10.2-1.7-10.2-1.7 0 0 8.4-3.6 12.6-3.7-7.2-1.9-14.6-0.6-19.2 1.3 6.9-5.7 13.5-9.8 13.5-9.8 0 0-9.2 2.6-14.6 4.3-5.4 1.7-16.4 7.6-16.7 7.8 0.2-0.3 5.4-7 9.7-8.7-6.8 0.8-19.5 13.5-19.9 13.9 0.3-0.3 8.1-11.2 12.1-13.6-10.2 4-18.5 13.9-24.6 28.9-6.2 15-5.4 22-5.4 22 0 0-4.1-5.6-4.5-13.8-0.9 19.4 5.1 28 15.6 48.5 0 0-8.6-9.4-15.7-19.9 4.5 12 9.7 19.5 10 19.9-0.4-0.5-13.2-13.6-16-19.9 1.7 8.8 5.7 14.8 5.9 15.2-0.2-0.2-3.3-2.6-5.9-5.9 1.9 7.9 6.1 8.9 9.1 13.9 3 4.9 2.2 9.1-0.8 27.9 0 0-1.9-2.8-2.7-5.7-0.8-2.9 1-9.3 0.1-12.6-2.4 10.7-6.8 14.4-11.2 20.3-1-0.6-3.1-2.4-3.1-2.4 0 0 2.4 0.7 3.2 0.4-5.3-3.3-9.4-10.1-7.5-19.8-5.6 11.4-6.6 14.2-14.8 17-6.6-3.2-9.9-9.3-9.9-14.5-5.6 8.6-13.5 19-19.5 19.3-6-0.3-13.9-10.7-19.5-19.3 0 5.2-3.3 11.3-9.9 14.5-8.2-2.8-9.2-5.6-14.8-17 1.9 9.7-2.2 16.5-7.5 19.8 0.8 0.3 3.2-0.4 3.2-0.4 0 0-2.1 1.8-3.1 2.4-4.4-5.9-8.8-9.6-11.2-20.3-0.9 3.3 0.9 9.7 0.1 12.6-0.8 2.9-2.7 5.7-2.7 5.7-3-18.8-3.8-23-0.8-27.9 3-5 7.2-6 9.1-13.9-2.6 3.3-5.7 5.7-5.9 5.9 0.2-0.4 4.2-6.4 5.9-15.2-2.8 6.3-15.6 19.4-16 19.9 0.3-0.4 5.5-7.9 10-19.9-7.1 10.5-15.7 19.9-15.7 19.9 10.5-20.5 16.5-29.1 15.6-48.5-0.4 8.2-4.5 13.8-4.5 13.8 0 0 0.8-7-5.4-22-6.1-15-14.4-24.9-24.6-28.9 4 2.4 11.8 13.3 12.1 13.6-0.4-0.4-13.1-13.1-19.9-13.9 4.3 1.7 9.5 8.4 9.7 8.7-0.3-0.2-11.3-6.1-16.7-7.8-5.4-1.7-14.6-4.3-14.6-4.3 0 0 6.6 4.1 13.5 9.8-4.6-1.9-12-3.2-19.2-1.3 4.2 0.1 12.6 3.7 12.6 3.7 0 0-6.2 0.9-10.2 1.7-4.1 0.8-7.6 0.1-7.6 0.1l3.5 5.9c-12.4-6.8-19.4-31.6-19.4-31.6 0 0-0.3 12.2 4.1 24.5-7.7-10-11.5-26.6-11.5-26.6 0 0 1.2 20.9 6.4 37.5-8.3-11.2-14.4-35.4-14.2-61.3-2.5 9-3.7 31.4-0.2 47-6.7-10.1-7.5-27.3-5.9-39.5 1.6-12.1 6.1-20.5 4.3-33.5-1.9 14.4-8.4 27.1-13 36.2-4.6 9.1-5.1 9.6-1.2 24.1 3.9 14.4 7.5 25.5 11.1 29.4 3.6 3.8 9.4 6.5 11.6 7.4 2.3 0.9 35.7-12.5 50.5-14.8-8.8 3.2-16.9 11.7-16.9 11.7 0 0 10.9-4.9 26.8-2.7 15.6 2.1 23.8 17.3 24 17.8-0.3-0.5-10.2-14.8-33.2-14.5-23.3 0.3-24.7 7.9-38.2 6.3l-5.5 0.9-3.8 1.4c12.6 1.9 25.7-3.9 40.4-2.1 14.8 1.8 26.9 17.7 26.9 29.3 0 7.9-12.3 27.4-6.2 41-2.8 8.5-5 16.3-0.1 22.9 4.9 6.5 22.9 13.6 29.9 16.1 7 2.5 29.9 11.9 67.8 12.1 37.9-0.2 60.8-9.6 67.8-12.1 7-2.5 25-9.6 29.9-16.1 4.9-6.6 2.7-14.4-0.1-22.9 6.1-13.6-6.2-33.1-6.2-41 0-11.6 12.1-27.5 26.9-29.3 14.7-1.8 27.8 4 40.4 2.1l-3.8-1.4-5.5-0.9c-13.5 1.6-14.9-6-38.2-6.3-23-0.3-32.9 14-33.2 14.5 0.2-0.5 8.4-15.7 24-17.8 15.9-2.2 26.8 2.7 26.8 2.7 0 0-8.1-8.5-16.9-11.7 14.8 2.3 48.2 15.7 50.5 14.8 2.2-0.9 8-3.6 11.6-7.4 3.6-3.9 7.2-15 11.1-29.4 3.9-14.5 3.4-15-1.2-24.1z"/>
				</g>
				<g id="&lt;Group&gt;">
					<g id="&lt;Group&gt;">
						<path id="&lt;Path&gt;" class="s0" d="m360.3 641.2c-2.3 9.2-0.9 17.3 0 19.3-2.9 4.3 1.3 17.5 1.3 17.5 0 0-2.1-4.8-4.7-5.1-0.3-2.9-3.3-7.9-3.3-7.9 0 0 0.9-12.6 2.6-17.4 1.6-4.8 4.1-6.4 4.1-6.4z"/>
					</g>
					<g id="&lt;Group&gt;">
						<path id="&lt;Path&gt;" class="s0" d="m340.2 604.8c16.6 3.3 21.5 12.3 22.9 15.4 1.4 3.1 6.8 20.9 0 37.4 1.2-11 0.8-24.4-2.4-30.7-3.2-6.3-20.5-22.1-20.5-22.1z"/>
					</g>
					<g id="&lt;Group&gt;">
						<path id="&lt;Path&gt;" class="s0" d="m368.8 620.2q0.1 0.1 0.1 0.2c6 9.1 6.2 20.9 0.6 30.1q-0.8 1.3-1.6 2.5c3.7-11.3 2.6-25.1 0.9-32.8z"/>
					</g>
					<g id="&lt;Group&gt;">
						<path id="&lt;Path&gt;" class="s0" d="m379 663.1c-1.7 2.8-0.8 16-0.8 16 0 0-2.4 1.5-3.2 4.8-0.4-1.9-2.1-4.5-2.2-5.3-0.1-0.6 0.4-6.5 0.6-8.6q0.1-0.8 0.6-1.4c1.1-1.3 3.6-4.4 5-5.5z"/>
					</g>
					<g id="&lt;Group&gt;">
						<path id="&lt;Path&gt;" class="s0" d="m359.2 683.3c-0.1-3.4-1-6.4-2.2-6.6-1.2-0.2-2.3 2.1-3 5.7-0.7 3.6-1.5 9.3 0.7 12.4 0.7 0.9 2.2 1.6 2.2 1.6l0.2-4-0.9 2.6c0 0-1.6-0.8-1.4-5.1 0.1-4.2 1-9.2 2.1-9.8 1.1-0.5 1.6 1.6 2.3 3.2z"/>
					</g>
					<g id="&lt;Group&gt;">
						<path id="&lt;Path&gt;" class="s0" d="m365.9 689.1l-1.7-8.6c0 0-4.5 4.5-3.8 17.9 0.1 0.3 0.2 0.6 0.4 0.7 2.4 1.8 4.2 2.2 4.2 2.2v-3.5c0 0-0.5 1.8-0.7 1.8-0.3 0.1-2.5-1-2.6-1.4-0.2-0.4 0.2-10.7 1.9-13.4 0.1-0.2 0.3-0.2 0.4-0.1 0.7 1.1 1.9 4.4 1.9 4.4z"/>
					</g>
					<g id="&lt;Group&gt;">
						<path id="&lt;Path&gt;" class="s0" d="m370.1 682.4c-1.1 5.4-2 20.1-2 21 0 0.8 4 2.5 4.7 2.6v-4.1l-1 2.9c0 0-2.7-1.2-2.8-1.9-0.1-0.8 1.5-13.5 2.7-14.6 1.3-1.2 1.5 3.7 1.5 3.7 0 0 0.7-5.9-3.1-9.6z"/>
					</g>
					<g id="&lt;Group&gt;">
						<path id="&lt;Path&gt;" class="s0" d="m379 683.9c-0.6 0.2-3.2 12.4-2.5 23.2 0 0.2 0.1 0.4 0.3 0.6 2.5 1.9 5.5 3.1 7.9 2.7 0.3-0.1 0.6-0.4 0.6-0.8 0.2-4.1-0.1-9.6-1.4-14.7-1.3-5.4-4-11.2-4.9-11z"/>
					</g>
					<g id="&lt;Group&gt;">
						<path id="&lt;Path&gt;" class="s1" d="m378.2 692.8c0.2 4.7 1.4 11.4 5.5 14.2 0 1.3-1.4 2.5-3.8 1.5-2.4-0.9-2.2-1.4-2.4-4.8-0.3-3.4 0.7-10.9 0.7-10.9z"/>
					</g>
					<g id="&lt;Group&gt;">
						<path id="&lt;Path&gt;" class="s0" d="m391.7 685.2c-2.1 0-2.7 10.6-2.8 16.1-0.1 4.1 0 7.6 0 9.2 0 0.6 0.3 1.2 0.9 1.5 1.4 0.8 4.8 2.4 10.6 2.9 0.7 0 1.2-0.5 1.2-1.1 0.4-15.6-6.1-28.6-9.9-28.6z"/>
					</g>
					<g id="&lt;Group&gt;">
						<path id="&lt;Path&gt;" class="s1" d="m391.9 692.8c-0.6 6 0.3 14.4 0.8 15.6 0.5 1.3 4.9 3.8 6.5 4.6-4.3-0.1-8.4-1.3-8.9-2.3-0.5-1.1-0.9-15.1 1.6-17.9z"/>
					</g>
					<g id="&lt;Group&gt;">
						<path id="&lt;Path&gt;" class="s0" d="m405.4 695.5c0-4.4 3.4-13.5 4.3-13.6 0.9-0.1 6.5 6.7 9.4 12.3 2.8 5.6 2.5 17.7 2.5 17.7 0 0-1.6-10-3.2-11.9 0.4 7 1.1 15.1 1.3 17.8 0.1 0.5-0.3 0.9-0.8 0.9-2.1 0.1-7.5-0.2-12.1-3-0.5-0.3-0.8-0.9-0.8-1.4-1.2-9.7 2-24.6 4.7-28.6-3.6 3-5.3 9.8-5.3 9.8z"/>
					</g>
					<g id="&lt;Group&gt;">
						<path id="&lt;Path&gt;" class="s1" d="m409.2 697.6c-2.4 5.3-2.3 13.3-0.3 15.9 1-2.8-0.8-13.3 0.3-15.9z"/>
					</g>
					<g id="&lt;Group&gt;">
						<path id="&lt;Path&gt;" class="s0" d="m420.9 690.8c0 0 1.2-0.6 2.4 0 0 0-0.6 2.5-0.6 3.5 0 0-1.1-3.1-1.8-3.5z"/>
					</g>
					<g id="&lt;Group&gt;">
						<path id="&lt;Path&gt;" class="s0" d="m428.4 688.4c-2.7 5.2-3.8 23.3-3.4 29.4 0 0.6 0.3 1.2 0.8 1.5 3.2 2.7 6.3 3.4 12.4 4.3 4.2 0.6 7.5 0.1 9.3-0.4 1-0.2 1.7-1.1 1.6-2.1-0.1-5.7-1.1-24.9-7.4-32.7 1.8 6.5 1.4 10.2 1.4 10.2 0 0-3.1-10.3-4.5-13.4-1.3-3.1-3.5-5.5-5.3-5.4-1.9 0.2-5.2 23.6-4.5 31.7-2-10.6-0.4-23.1-0.4-23.1z"/>
					</g>
					<g id="&lt;Group&gt;">
						<path id="&lt;Path&gt;" class="s0" d="m542.7 641.2c2.3 9.2 0.9 17.3 0 19.3 2.9 4.3-1.3 17.5-1.3 17.5 0 0 2.1-4.8 4.7-5.1 0.3-2.9 3.2-7.9 3.2-7.9 0 0-0.8-12.6-2.5-17.4-1.6-4.8-4.1-6.4-4.1-6.4z"/>
					</g>
					<g id="&lt;Group&gt;">
						<path id="&lt;Path&gt;" class="s0" d="m562.8 604.8c-16.6 3.3-21.5 12.3-22.9 15.4-1.4 3.1-6.8 20.9 0 37.4-1.2-11-0.8-24.4 2.4-30.7 3.2-6.3 20.5-22.1 20.5-22.1z"/>
					</g>
					<g id="&lt;Group&gt;">
						<path id="&lt;Path&gt;" class="s0" d="m534.2 620.2q-0.1 0.1-0.1 0.2c-6 9.1-6.2 20.9-0.6 30.1q0.8 1.3 1.6 2.5c-3.7-11.3-2.6-25.1-0.9-32.8z"/>
					</g>
					<g id="&lt;Group&gt;">
						<path id="&lt;Path&gt;" class="s0" d="m524 663.1c1.6 2.8 0.7 16 0.7 16 0 0 2.5 1.5 3.3 4.8 0.4-1.9 2.1-4.5 2.2-5.3 0.1-0.6-0.5-6.5-0.7-8.6q0-0.8-0.5-1.4c-1.1-1.3-3.6-4.4-5-5.5z"/>
					</g>
					<g id="&lt;Group&gt;">
						<path id="&lt;Path&gt;" class="s0" d="m543.8 683.3c0.1-3.4 1-6.4 2.2-6.6 1.2-0.2 2.3 2.1 3 5.7 0.7 3.6 1.5 9.3-0.7 12.4-0.7 0.9-2.2 1.6-2.2 1.6l-0.2-4 0.9 2.6c0 0 1.6-0.8 1.4-5.1-0.1-4.2-1-9.2-2.1-9.8-1.1-0.5-1.6 1.6-2.3 3.2z"/>
					</g>
					<g id="&lt;Group&gt;">
						<path id="&lt;Path&gt;" class="s0" d="m537.1 689.1l1.7-8.6c0 0 4.5 4.5 3.8 17.9-0.1 0.3-0.2 0.6-0.4 0.7-2.4 1.8-4.2 2.2-4.2 2.2v-3.5c0 0 0.5 1.8 0.7 1.8 0.3 0.1 2.5-1 2.6-1.4 0.2-0.4-0.2-10.7-1.9-13.4-0.1-0.2-0.3-0.2-0.4-0.1-0.7 1.1-1.9 4.4-1.9 4.4z"/>
					</g>
					<g id="&lt;Group&gt;">
						<path id="&lt;Path&gt;" class="s0" d="m532.9 682.4c1.1 5.4 2 20.1 2 21 0 0.8-4 2.5-4.7 2.6v-4.1l1 2.9c0 0 2.7-1.2 2.8-1.9 0.1-0.8-1.5-13.5-2.7-14.6-1.3-1.2-1.5 3.7-1.5 3.7 0 0-0.7-5.9 3.1-9.6z"/>
					</g>
					<g id="&lt;Group&gt;">
						<path id="&lt;Path&gt;" class="s0" d="m524 683.9c0.6 0.2 3.2 12.4 2.5 23.2 0 0.2-0.1 0.4-0.3 0.6-2.5 1.9-5.6 3.1-7.9 2.7-0.4-0.1-0.6-0.4-0.6-0.8-0.2-4.1 0.1-9.6 1.4-14.7 1.3-5.4 4-11.2 4.9-11z"/>
					</g>
					<g id="&lt;Group&gt;">
						<path id="&lt;Path&gt;" class="s1" d="m524.8 692.8c-0.2 4.7-1.4 11.4-5.6 14.2 0.1 1.3 1.5 2.5 3.9 1.5 2.4-0.9 2.2-1.4 2.4-4.8 0.3-3.4-0.7-10.9-0.7-10.9z"/>
					</g>
					<g id="&lt;Group&gt;">
						<path id="&lt;Path&gt;" class="s0" d="m511.3 685.2c2.1 0 2.7 10.6 2.8 16.1 0 4.1 0 7.6 0 9.2 0 0.6-0.3 1.2-0.9 1.5-1.4 0.8-4.8 2.4-10.7 2.9-0.6 0-1.1-0.5-1.1-1.1-0.4-15.6 6.1-28.6 9.9-28.6z"/>
					</g>
					<g id="&lt;Group&gt;">
						<path id="&lt;Path&gt;" class="s1" d="m511.1 692.8c0.6 6-0.3 14.4-0.8 15.6-0.5 1.3-4.9 3.8-6.5 4.6 4.3-0.1 8.4-1.3 8.9-2.3 0.4-1.1 0.9-15.1-1.6-17.9z"/>
					</g>
					<g id="&lt;Group&gt;">
						<path id="&lt;Path&gt;" class="s0" d="m497.6 695.5c0-4.4-3.4-13.5-4.3-13.6-0.9-0.1-6.5 6.7-9.4 12.3-2.8 5.6-2.5 17.7-2.5 17.7 0 0 1.6-10 3.2-11.9-0.4 7-1.1 15.1-1.3 17.8-0.1 0.5 0.3 0.9 0.8 0.9 2.1 0.1 7.5-0.2 12.1-3 0.5-0.3 0.8-0.9 0.8-1.4 1.2-9.7-2-24.6-4.7-28.6 3.6 3 5.3 9.8 5.3 9.8z"/>
					</g>
					<g id="&lt;Group&gt;">
						<path id="&lt;Path&gt;" class="s1" d="m493.8 697.6c2.4 5.3 2.3 13.3 0.3 15.9-1-2.8 0.8-13.3-0.3-15.9z"/>
					</g>
					<g id="&lt;Group&gt;">
						<path id="&lt;Path&gt;" class="s0" d="m482.1 690.8c0 0-1.2-0.6-2.4 0 0 0 0.6 2.5 0.6 3.5 0 0 1.1-3.1 1.8-3.5z"/>
					</g>
					<g id="&lt;Group&gt;">
						<path id="&lt;Path&gt;" class="s0" d="m474.6 688.4c2.7 5.2 3.8 23.3 3.4 29.4 0 0.6-0.3 1.2-0.8 1.5-3.2 2.7-6.3 3.4-12.4 4.3-4.2 0.6-7.5 0.1-9.3-0.4-1-0.2-1.7-1.1-1.7-2.1 0.2-5.7 1.2-24.9 7.5-32.7-1.8 6.5-1.4 10.2-1.4 10.2 0 0 3.1-10.3 4.5-13.4 1.3-3.1 3.5-5.5 5.3-5.4 1.9 0.2 5.2 23.6 4.5 31.7 2-10.6 0.4-23.1 0.4-23.1z"/>
					</g>
					<g id="&lt;Group&gt;">
						<path id="&lt;Path&gt;" class="s0" d="m451.5 702.9l2.3-4.6h-2.3-2.4l2.4 4.6z"/>
					</g>
				</g>
				<g id="&lt;Group&gt;">
					<path id="&lt;Path&gt;" class="s1" d="m492 600c-1.2-12.7-7.6-35.1-9.6-40.8-1.9-5.6-6.2-9.8-8.9-18.9-2.7-9.1-6.1-26-9.6-30.2-3.4-4.2-8.6-6.3-12.4-6.3-3.8 0-9 2.1-12.4 6.3-3.4 4.2-6.9 21.1-9.6 30.2-2.7 9.1-7 13.3-8.9 18.9-2 5.7-8.4 28.1-9.6 40.8-1.2 12.7 2.2 23 6.7 27.7-2.4-6.1-1.3-10.2-1.3-10.2 0 0 10.3 13.8 28.2 7.6-4.9 0-5.4-0.5-5.4-0.5 0 0 7.9-4.1 8.5-18.2-3.2 7.6-5.9 10.7-5.9 10.7 0 0 3.4-15.8 4.5-18.1 1.1-2.3 4.1-5.6 5.2-5.7 1.1 0.1 4.1 3.4 5.2 5.7 1.1 2.3 4.5 18.1 4.5 18.1 0 0-2.7-3.1-5.9-10.7 0.6 14.1 8.5 18.2 8.5 18.2 0 0-0.5 0.5-5.4 0.5 17.9 6.2 28.2-7.6 28.2-7.6 0 0 1.1 4.1-1.3 10.2 4.5-4.7 7.9-15 6.7-27.7z"/>
				</g>
				<g id="&lt;Group&gt;">
					<path id="&lt;Path&gt;" class="s1" d="m345 418.8c17.3-7.6 32.1-7 47.2 3.3 15.1 10.3 28.7 39.7 25.4 65.1 6.1-11.8 0.5-32.7 0.5-32.7 0 0 6.3 13.5 5.2 28.1 3.1-3 4.4-3.9 5.5-7.8 1-3.9 4.5-26.5 13.9-29.7-5.2 6.3-8.9 13.7-12.7 37.3-3.8 23.7-23.8 61.1-30.8 69.9 3.4-13.7 9.1-29.6 9.1-29.6 0 0-10 14.8-23.4 21.5 13.1-12.5 26.7-30.1 30.6-42.6-13.5 18.6-28.1 40.7-72.2 42 17.6-3.9 39-10.7 49.7-23.3-20.7 10.4-56.8 21.2-77.4 23.4-20.7 2.2-28.6-10.5-28.6-10.5 0 0 8.1 5.1 13.8 5.6-11.4-12.3-12.6-36.5-11.4-46.2 1.2-9.7 3-24.3 3-24.3 0 0-4.9 1.4-6.7 16.7-1.1-12.7 0-22.4 11.9-33.5 12-11 19.6-11 36.8-18.7 17.2-7.6 31.3-13.7 31.3-13.7 0 0-5.8-3.6-20.7-0.3z"/>
				</g>
				<g id="&lt;Group&gt;">
					<path id="&lt;Path&gt;" class="s0" d="m405.7 453.6c1.9 4.5 3.1 8.4 4 11.8 1.8 7.2-0.1 14.7-5 20.2 0 0 4.3-9.4 1-32z"/>
				</g>
				<g id="&lt;Group&gt;">
					<path id="&lt;Path&gt;" class="s0" d="m393.7 510.8c14.2-8.8 18.2-25.2 18.2-25.2 0 0-11.8 20.8-18.2 25.2z"/>
				</g>
				<g id="&lt;Group&gt;">
					<path id="&lt;Path&gt;" class="s1" d="m256.9 368.9c2.8-9.4 6.3-18.5 10.8-27.2 1.1-2.2 2.3-4.3 3.6-6.4 1.2-2.2 2.5-4.2 3.9-6.2 1.3-2.1 2.7-4.1 4.2-6 1.4-2 3-3.9 4.5-5.8 6.3-7.5 13.3-14.3 20.9-20.4 1.9-1.5 3.9-2.9 5.8-4.4 1.9-1.4 3.9-2.7 5.9-4.1l6.1-3.9q3.1-1.9 6.2-3.8c-7.5 6-14.9 12.2-21.9 18.7-7 6.5-13.5 13.4-19.3 20.9-1.4 1.9-2.9 3.7-4.2 5.7-1.3 1.9-2.7 3.8-3.9 5.9-1.3 2-2.6 3.9-3.7 6-1.1 2.1-2.4 4.1-3.4 6.2-4.3 8.4-7.9 17.2-11.1 26.1z"/>
				</g>
				<g id="&lt;Group&gt;">
					<path id="&lt;Path&gt;" class="s0" d="m415.7 601.3c-0.1 9.1 1.4 14.9 12.6 18.3-7.6-5.7-11.9-12.4-12.6-18.3z"/>
				</g>
				<g id="&lt;Group&gt;">
					<path id="&lt;Path&gt;" class="s1" d="m407.8 587.8c-1.8 7.3-4 24.4 0.8 32.9-8.6-13-5.3-26.2-0.8-32.9z"/>
				</g>
				<g id="&lt;Group&gt;">
					<path id="&lt;Path&gt;" class="s1" d="m343.2 563.9c16.3-5.4 54.2-8.1 55.7 21.8-4.8-9.9-8.7-13.2-13.7-13.9 5.7 4.4 10.8 18.2 11.2 22.7-3.5-7.8-11.9-18.6-15.8-20.6 2.1 6.5 4.9 12.4 4.9 12.4 0 0-7.4-12.8-11.9-15.3 5.4 8.6 5.9 12.4 5.9 12.4 0 0-8.7-14.4-18.7-17.7-10-3.2-17.6-1.8-17.6-1.8z"/>
				</g>
				<g id="&lt;Group&gt;">
					<path id="&lt;Path&gt;" class="s1" d="m289.1 537.9c5.8 8.8 21.8 10.6 31.4 8.9-4.9 3.8-13.6 2.9-13.6 2.9 0 0 4.6 3.9 12.8 3.9-14.3 1.6-24.3-3.9-30.6-15.7z"/>
				</g>
				<g id="&lt;Group&gt;">
					<path id="&lt;Path&gt;" class="s1" d="m265.6 587.8c-1.3-2.6-2.2-5.4-2.8-8.1-0.7-2.8-1.1-5.5-1.4-8.3-0.3-2.7-0.4-5.5-0.6-8.2-0.2-2.7-0.3-5.5-0.9-8.1 0.6 1.2 0.9 2.6 1.3 3.9q0.6 2 1 4 0.9 4 1.9 7.9c0.7 2.6 1.5 5.2 2.5 7.6 0.9 2.4 1.9 4.8 3 7z"/>
				</g>
				<g id="&lt;Group&gt;">
					<path id="&lt;Path&gt;" class="s1" d="m259.2 577.2c-0.8-2.3-1.3-4.5-1.6-6.7q-0.5-3.4-0.7-6.7-0.1-3.3 0.1-6.6c0.1-2.2 0.3-4.4 0.6-6.5 0.1 2.2 0.3 4.3 0.5 6.5q0.4 3.2 1.1 6.3 0.7 3.2 1.7 6.2c0.7 1.9 1.5 3.8 2.5 5.6z"/>
				</g>
				<g id="&lt;Group&gt;">
					<path id="&lt;Path&gt;" class="s1" d="m288.1 604.7c0.5 0 1.2-0.1 1.9-0.3l1.1-0.2q0.6-0.1 1.2-0.2c1.5-0.4 3.1-0.8 4.7-1.3 3.2-1 6.4-2.1 9.5-3.3q4.8-1.8 9.5-3.7 4.7-1.9 9.4-3.9-8.7 5.4-17.7 10.2c-3.1 1.6-6.1 3.1-9.3 4.5-1.6 0.7-3.2 1.3-4.9 1.9-0.8 0.3-1.7 0.5-2.7 0.7-0.9 0.2-1.9 0.3-3.1 0.2z"/>
				</g>
				<g id="&lt;Group&gt;">
					<path id="&lt;Path&gt;" class="s1" d="m366.2 279.5c-23.8 9.5-41.4 35-42.7 47.9 10.7-19.5 28.5-38.7 42.7-47.9z"/>
				</g>
				<g id="&lt;Group&gt;">
					<g id="&lt;Group&gt;">
						<path id="&lt;Path&gt;" class="s1" d="m292.9 465.2c-0.8 1-1.5 2.1-2.4 3.4-0.4 0.6-0.9 1.4-2 2.2-0.6 0.4-1.3 0.6-2 0.7-0.7 0.1-1.3 0.1-1.8 0-1.2-0.3-2.2-0.8-3-1.6q-0.7-0.5-1.1-1.2l-0.6-0.9-2.4-3.6-2.3-3.6c-1-1.5-1.6-2.9-2.1-4.7-0.2-0.9-0.3-1.8-0.2-2.8v-0.4l0.1-0.3q0-0.3 0.1-0.6 0.1-0.6 0.2-1.2c0.4-1.5 0.9-2.9 1.4-4.4 2.2-5.5 5.1-10.8 9-15.3 1.9-2.3 4.1-4.4 6.5-6.1 1.2-0.9 2.5-1.7 3.9-2.3l1-0.4c0.3-0.2 0.7-0.3 1-0.4q1.1-0.4 2.2-0.6c-2.5 1.5-4.7 3.3-6.7 5.3q-1.5 1.5-2.9 3.1-1.3 1.6-2.5 3.3-2.4 3.5-4.2 7.3c-1.3 2.5-2.3 5.1-3.2 7.7-0.4 1.3-0.8 2.6-1.1 3.9q-0.1 0.5-0.1 0.9-0.1 0.2-0.1 0.5v0.2 0.1c-0.1 0.4 0 0.9 0.1 1.4 0.3 1.1 0.8 2.2 1.5 3.2l2.4 3.5c0.8 1.2 1.6 2.4 2.4 3.6l0.5 0.9q0.2 0.2 0.4 0.4 0.3 0.3 0.7 0.3c0.1 0.1 0.2 0.1 0.2 0.1 0 0 0 0 0 0 0.1 0 0.5-0.4 0.9-0.9 0.7-1.1 1.6-2.4 2.6-3.6z"/>
					</g>
				</g>
				<g id="&lt;Group&gt;">
					<path id="&lt;Path&gt;" class="s1" d="m307.3 425.4c2-2.9 4.3-5.6 6.8-8 1.2-1.2 2.6-2.3 4-3.4 1.4-1.1 2.8-2.1 4.3-3 3-1.9 6.2-3.4 9.6-4.5 1.7-0.6 3.4-1 5.1-1.3q2.6-0.5 5.2-0.6c-1.7 0.6-3.3 1.1-4.9 1.7-0.8 0.3-1.6 0.6-2.4 0.9l-1.2 0.5-1.2 0.5c-3.1 1.3-6.1 2.9-9 4.7-2.9 1.8-5.6 3.7-8.3 5.9-2.7 2-5.3 4.3-8 6.6z"/>
				</g>
				<g id="&lt;Group&gt;">
					<path id="&lt;Path&gt;" class="s1" d="m376.4 409.2c3.4-0.2 6.8 0.4 10 1.5 3.2 1.1 6.2 2.8 9 4.8 2.7 2 5.2 4.3 7.3 6.9 2.1 2.7 3.9 5.6 5 8.8-2.2-2.6-4.4-4.9-6.8-7.1q-3.5-3.3-7.3-6.2-3.9-2.8-8.1-5c-2.9-1.4-5.9-2.6-9.1-3.7z"/>
				</g>
				<g id="&lt;Group&gt;">
					<path id="&lt;Path&gt;" class="s1" d="m401.3 381.7c20.6 8.6 20.4 17.2 26.1 20.8-7.6-1.6-13.1-5.2-16.7-11-3.6-5.9-9.4-9.8-9.4-9.8z"/>
				</g>
				<g id="&lt;Group&gt;">
					<path id="&lt;Path&gt;" class="s1" d="m312 577.2c3.1-11 8.5-14.7 12.6-15.6-2.7 4.5-3.2 6.8-5 9-1.7 2.2-7.6 6.6-7.6 6.6z"/>
				</g>
				<g id="&lt;Group&gt;">
					<path id="&lt;Path&gt;" class="s1" d="m302.6 422.8c-9.3 5-17.7 17.4-21.8 29.1-0.4 1.1-0.3 2.2 0.3 3.2q2.3 3.5 3.5 5.3c0.5 0.9 1.8 0.9 2.4 0 2.7-4.4 10.2-15.2 20.3-20.7-6.4-0.1-16.8 8-16.8 8l7.9-12.8-11.7 13c0 0 5-15.1 15.9-25.1z"/>
				</g>
				<g id="&lt;Group&gt;">
					<path id="&lt;Path&gt;" class="s1" d="m293.8 359.5c-8.3 13.1-14.9 30.6-17 66.4-1.2-27.9 4.7-64.1 29.5-104.1-14.5 14.5-38 53.6-36.2 104.8-4.8-25.1 0.4-66.8 33.1-111.4-18.6 19.5-33.2 38.6-39.9 75.1-1.1 6.2-3.4 45.4-1.9 65.1 3.1 5 3.6 13.9 3.6 13.9 0 0-1.6-4.7-3.9-8-0.7 14.7-1.1 28.7 0.2 32.3 2.7 7.5 4 25.1 3.3 27.5 0.7 9.5-1.4 15.1-3.3 21 8.1-12.8 16.2-32.1 17.4-51.4 1.2-19.3-3.7-32.6-3.7-32.6 0 0 2-13.2 8.5-22.8l5.1-6.7c0 0 4.3-19.8 4.3-24.4 0-4.5-2.7-17.5-0.5-28.3-3.4 11.8-3.9 19.8-3.7 27.6 0.3 7.8-6.2 21.9-6.2 21.9 0 0 0.9-43.4 11.3-65.9z"/>
				</g>
				<g id="&lt;Group&gt;">
					<path id="&lt;Path&gt;" class="s1" d="m433.9 638.9c-8 8.2-10.3 27.3-10.9 33.2 5.6-5.9 7.9-14.5 8.2-18.4-1.6 2.1-2.8 4.5-2.8 4.5 0 0 3.1-15.8 5.5-19.3z"/>
				</g>
				<g id="&lt;Group&gt;">
					<path id="&lt;Path&gt;" class="s1" d="m394.9 678c0.2-5.1 7.5-17.7 14-26-5.9 3.8-9.9 10-9.9 10 0 0 8-12.1 9.2-20-4 8.1-6.8 9.7-10.2 13.9-3.4 4.2-6.6 14.3-3.1 22.1z"/>
				</g>
				<g id="&lt;Group&gt;">
					<path id="&lt;Path&gt;" class="s1" d="m558.2 418.8c-17.3-7.6-32.1-7-47.2 3.3-15.1 10.3-28.7 39.7-25.4 65.1-6.1-11.8-0.5-32.7-0.5-32.7 0 0-6.4 13.5-5.2 28.1-3.1-3-4.4-3.9-5.5-7.8-1-3.9-4.5-26.5-13.9-29.7 5.2 6.3 8.9 13.7 12.7 37.3 3.8 23.7 23.8 61.1 30.8 69.9-3.4-13.7-9.1-29.6-9.1-29.6 0 0 10 14.8 23.4 21.5-13.1-12.5-26.7-30.1-30.6-42.6 13.4 18.6 28.1 40.7 72.2 42-17.6-3.9-39-10.7-49.7-23.3 20.7 10.4 56.8 21.2 77.4 23.4 20.6 2.2 28.6-10.5 28.6-10.5 0 0-8.1 5.1-13.8 5.6 11.4-12.3 12.6-36.5 11.4-46.2-1.2-9.7-3-24.3-3-24.3 0 0 4.9 1.4 6.7 16.7 1.1-12.7 0-22.4-11.9-33.5-12-11-19.6-11-36.8-18.7-17.2-7.6-31.4-13.7-31.4-13.7 0 0 5.9-3.6 20.8-0.3z"/>
				</g>
				<g id="&lt;Group&gt;">
					<path id="&lt;Path&gt;" class="s0" d="m497.4 453.6c-1.8 4.5-3 8.4-3.9 11.8-1.8 7.2 0.1 14.7 5 20.2 0 0-4.3-9.4-1.1-32z"/>
				</g>
				<g id="&lt;Group&gt;">
					<path id="&lt;Path&gt;" class="s0" d="m509.5 510.8c-14.2-8.8-18.2-25.2-18.2-25.2 0 0 11.8 20.8 18.2 25.2z"/>
				</g>
				<g id="&lt;Group&gt;">
					<path id="&lt;Path&gt;" class="s1" d="m451.5 234.4c-26.5 0-74.2 13.9-99.6 35.2 23.3-12.2 61.2-27.5 99.6-27.5 38.4 0 76.3 15.3 99.6 27.5-25.4-21.3-73.1-35.2-99.6-35.2z"/>
				</g>
				<g id="&lt;Group&gt;">
					<path id="&lt;Path&gt;" class="s1" d="m480.3 434.7c-3.8 3.3-11 8.7-13.9 6.1-0.7-0.5-1.4-1.1-2.2-1.5l-1.2-0.7q-0.6-0.3-1.2-0.6c-3.3-1.4-6.9-2-10.3-1.8-3.4-0.2-7 0.4-10.3 1.8q-0.6 0.3-1.2 0.6l-1.2 0.7c-0.8 0.4-1.5 1-2.2 1.5-2.9 2.6-10.1-2.8-13.9-6.1-3.7-3.3-12-5-12-5 0 0 8.9 4.8 11.9 7.2 2.6 2.1 5.9 7 9.8 8.2-2 2.4-3.4 5.2-4.6 8l-0.8 2.4c-0.3 0.7-0.5 1.5-0.7 2.3-0.5 1.6-0.8 3.2-1.1 4.8l1-2.2q0.5-1.2 1-2.2c0.7-1.5 1.5-2.8 2.3-4.2 1.7-2.7 3.6-5.2 5.8-7.3q0.4-0.4 0.9-0.7l0.9-0.7c0.5-0.4 1.2-0.8 1.8-1.2 0.6-0.4 1.3-0.7 1.9-1 0.7-0.3 1.4-0.6 2.1-0.8 2.7-0.9 5.6-1.2 8.6-1.5 3 0.3 5.9 0.6 8.6 1.5 0.7 0.2 1.4 0.5 2.1 0.8 0.6 0.3 1.3 0.6 1.9 1 0.6 0.4 1.3 0.8 1.8 1.2l0.9 0.7q0.5 0.3 0.9 0.7c2.2 2.1 4.1 4.6 5.8 7.3 0.8 1.4 1.6 2.7 2.3 4.2q0.5 1 1 2.2l1 2.2c-0.3-1.6-0.6-3.2-1.1-4.8-0.2-0.8-0.4-1.6-0.7-2.3l-0.8-2.4c-1.2-2.8-2.6-5.6-4.6-8 3.9-1.2 7.2-6.1 9.8-8.2 3-2.4 11.9-7.2 11.9-7.2 0 0-8.3 1.7-12 5z"/>
				</g>
				<g id="&lt;Group&gt;">
					<path id="&lt;Path&gt;" class="s0" d="m487.5 601.3c0.1 9.1-1.4 14.9-12.6 18.3 7.6-5.7 11.9-12.4 12.6-18.3z"/>
				</g>
				<g id="&lt;Group&gt;">
					<path id="&lt;Path&gt;" class="s1" d="m495.4 587.8c1.8 7.3 4 24.4-0.8 32.9 8.6-13 5.3-26.2 0.8-32.9z"/>
				</g>
				<g id="&lt;Group&gt;">
					<path id="&lt;Path&gt;" class="s1" d="m492.3 569q-0.3-3.2-0.8-6.3-0.2-1.6-0.6-3.3c-0.3-1.1-0.7-2.1-1.2-3.1-0.9-2-2-3.8-3.1-5.7-1-1.8-2-3.6-2.8-5.4q-0.6-1.4-1.1-2.8l-0.3-1.4-0.4-1.6q-0.7-3.1-1.5-6.1c-1.1-4.1-2.1-8.3-3.3-12.3q-1-3.5-2-6.9c-0.5-1.9-1.1-3.7-1.7-5.5-0.4-1.2-0.9-2.4-1.3-3.5q-0.7-1.8-1.3-3.5c-0.9-2.3-1.7-4.6-2.4-7-0.8-2.3-1.4-4.7-1.9-7.2-0.4 2.5-0.5 5.1-0.4 7.6q0.1 2.3 0.4 4.5-1-0.8-2.1-1.6-2.8-1.9-5.9-3.2c-2.1-0.9-4.4-1.7-7.1-1.7-2.7 0-5 0.8-7.1 1.7q-3.1 1.3-5.9 3.2-1.1 0.8-2.1 1.6 0.3-2.2 0.4-4.5c0.1-2.5 0-5.1-0.4-7.6-0.5 2.5-1.1 4.9-1.9 7.2-0.7 2.4-1.5 4.7-2.4 7q-0.6 1.7-1.3 3.5c-0.4 1.1-0.9 2.3-1.3 3.5-0.6 1.8-1.2 3.6-1.7 5.5q-1 3.4-2 6.9c-1.2 4-2.2 8.2-3.3 12.3q-0.8 3-1.5 6.1l-0.4 1.6-0.3 1.4q-0.5 1.4-1.1 2.8c-0.8 1.8-1.8 3.6-2.8 5.4-1.1 1.9-2.2 3.7-3.1 5.7-0.5 1-0.9 2-1.2 3.1q-0.4 1.7-0.6 3.3-0.5 3.1-0.8 6.3c-0.4 4.2-0.8 8.4-1 12.7 0.7-4.2 1.5-8.4 2.3-12.5 0.4-2.1 0.9-4.1 1.3-6.2q0.4-1.5 0.9-2.9c0.3-0.9 0.8-1.8 1.2-2.7 2.1-3.5 4.8-6.8 6.8-10.8q0.8-1.5 1.4-3.1l0.6-1.6 0.4-1.5 1.9-6c1.2-4.1 2.5-8.1 3.8-12.1q0.9-3 2-5.9c0.6-2 1.3-4 2.1-5.9 0.3-0.9 0.8-1.8 1.1-2.6 0.4-0.7 0.9-1.4 1.5-2.1 1.2-1.3 2.8-2.6 4.4-3.7 1.6-1.1 3.3-2.1 5-3 1.7-0.8 3.6-1.4 5.1-1.5 1.5 0.1 3.4 0.7 5.1 1.5 1.7 0.9 3.4 1.9 5 3 1.6 1.1 3.2 2.4 4.4 3.7 0.6 0.7 1.1 1.4 1.5 2.1 0.3 0.8 0.8 1.7 1.1 2.6 0.8 1.9 1.5 3.9 2.1 5.9q1.1 2.9 2 5.9c1.3 4 2.6 8 3.8 12.1l1.9 6 0.4 1.5 0.6 1.6q0.6 1.6 1.4 3.1c2 4 4.7 7.3 6.8 10.8 0.4 0.9 0.9 1.8 1.2 2.7q0.5 1.4 0.9 2.9c0.4 2.1 0.9 4.1 1.3 6.2 0.8 4.1 1.6 8.3 2.3 12.5-0.2-4.3-0.6-8.5-1-12.7z"/>
				</g>
				<g id="&lt;Group&gt;">
					<path id="&lt;Path&gt;" class="s1" d="m560 563.9c-16.3-5.4-54.2-8.1-55.7 21.8 4.8-9.9 8.7-13.2 13.7-13.9-5.7 4.4-10.8 18.2-11.2 22.7 3.5-7.8 11.9-18.6 15.8-20.6-2.1 6.5-4.9 12.4-4.9 12.4 0 0 7.3-12.8 11.9-15.3-5.4 8.6-5.9 12.4-5.9 12.4 0 0 8.7-14.4 18.7-17.7 10-3.2 17.6-1.8 17.6-1.8z"/>
				</g>
				<g id="&lt;Group&gt;">
					<path id="&lt;Path&gt;" class="s1" d="m614.1 537.9c-5.9 8.8-21.8 10.6-31.4 8.9 4.9 3.8 13.6 2.9 13.6 2.9 0 0-4.6 3.9-12.8 3.9 14.3 1.6 24.3-3.9 30.6-15.7z"/>
				</g>
				<g id="&lt;Group&gt;">
					<path id="&lt;Path&gt;" class="s1" d="m633.6 585.5c1.5-2 2.6-4.4 3.5-6.8 1-2.5 1.7-5.1 2.4-7.7 0.7-2.6 1.2-5.3 1.8-8 0.5-2.6 1.1-5.3 2-7.9-0.5 2.7-0.4 5.4-0.6 8.1-0.1 2.8-0.2 5.5-0.5 8.3-0.3 2.7-0.7 5.5-1.3 8.3-0.6 2.8-1.6 5.6-3.3 8z"/>
				</g>
				<g id="&lt;Group&gt;">
					<path id="&lt;Path&gt;" class="s1" d="m639.8 575.3c1-1.8 1.8-3.7 2.5-5.6q1-3 1.7-6.2 0.7-3.1 1.1-6.3c0.2-2.2 0.4-4.3 0.4-6.5 0.4 2.1 0.6 4.3 0.7 6.5q0.2 3.3 0.1 6.6-0.2 3.3-0.7 6.7c-0.3 2.2-0.8 4.4-1.6 6.7z"/>
				</g>
				<g id="&lt;Group&gt;">
					<path id="&lt;Path&gt;" class="s1" d="m615.5 609.3c-1.2 0.1-2.2 0-3.2-0.2q-1.3-0.3-2.6-0.7c-1.7-0.6-3.3-1.2-4.9-1.9-3.2-1.4-6.3-2.9-9.3-4.5q-9.1-4.8-17.7-10.2 4.7 2 9.4 3.9 4.7 1.9 9.5 3.7c3.1 1.2 6.3 2.3 9.5 3.3 1.6 0.5 3.2 0.9 4.7 1.3q0.6 0.1 1.2 0.2l1.1 0.2c0.7 0.2 1.4 0.3 1.9 0.3z"/>
				</g>
				<g id="&lt;Group&gt;">
					<path id="&lt;Compound Path&gt;" fill-rule="evenodd" class="s1" d="m451.5 728c-36-0.2-58.6-8.6-67.1-11.7q-0.9-0.3-1.5-0.6c-7.5-2.7-25.6-9.8-30.9-16.9-5.7-7.6-3-16.6-0.5-24.1-3.9-9.7 0.2-21.3 3.4-30.6 1.5-4.3 2.9-8.3 2.9-10.5 0-10.8-11.5-25.4-24.8-27.1-7.2-0.8-14.1 0.2-20.8 1.2-6.6 0.9-12.8 1.9-19.2 1-1.4 0.5-5.1 1.4-8.1-0.3q-0.3-0.2-0.7-0.5c-3.8-2-13.6-7.5-17.2-16.7-3.6-9.1-6.9-13.4-12.1-18.6-6.5-6.5-5.3-22.7-3.3-29.5 1.1-3.8 3-7 5-10.4 1.8-3.1 3.7-6.3 5.3-10.4 3.2-10.2-0.2-20.2-3.8-30.7-1.9-5.6-3.9-11.4-4.7-17.2-3.4-23.1-2.6-60.6 0-85.7 1.9-18.7 7.5-36.3 18.2-57.1 22.2-43.4 61.3-69.3 90.2-83.3 36.6-17.8 71.2-24.1 89.7-24.1 18.5 0 53.1 6.3 89.7 24.1 28.9 14 68 39.9 90.2 83.3 10.7 20.8 16.3 38.4 18.2 57.1 2.6 25.1 3.4 62.6 0 85.7-0.8 5.8-2.8 11.6-4.7 17.2-3.6 10.5-7 20.5-3.8 30.7 1.6 4.1 3.5 7.3 5.3 10.4 2 3.4 3.9 6.6 5 10.4 2 6.8 3.2 23-3.3 29.5-5.2 5.2-8.5 9.5-12.1 18.6-3.6 9.2-13.4 14.7-17.2 16.7q-0.4 0.3-0.7 0.5c-3 1.7-6.7 0.8-8.1 0.3-6.4 0.9-12.6-0.1-19.2-1-6.7-1-13.6-2-20.8-1.2-13.3 1.7-24.8 16.3-24.8 27.1 0 2.2 1.4 6.2 2.9 10.5 3.2 9.3 7.3 20.9 3.4 30.6 2.5 7.5 5.2 16.5-0.5 24.1-5.3 7.1-23.4 14.2-30.9 16.9q-0.6 0.3-1.5 0.6c-8.5 3.1-31.1 11.5-67.1 11.7zm-124.3-126.4q3.1 0 6.3 0.4c16 1.9 28.9 18.9 28.9 31.6 0 3-1.4 7.2-3.1 12-3.1 8.8-7 19.9-3.3 28l0.4 0.9-0.3 0.8c-2.9 8.7-4.6 15.3-0.5 20.8 3.8 5 17.4 11.2 28.8 15.3q0.7 0.3 1.6 0.6c8.3 3.1 30.4 11.3 65.5 11.4 35.1-0.1 57.2-8.3 65.5-11.4q0.9-0.3 1.6-0.6c11.4-4.1 25-10.3 28.8-15.3 4.1-5.5 2.4-12.1-0.5-20.8l-0.3-0.8 0.4-0.9c3.7-8.1-0.2-19.2-3.3-28-1.7-4.8-3.1-9-3.1-12 0-12.7 12.9-29.7 28.9-31.6 7.8-1 15 0.1 21.9 1.1 6.5 1 12.6 1.9 18.5 1l0.6-0.1 0.6 0.2c0.7 0.3 3.3 1 4.7 0.2q0.4-0.2 0.8-0.5c3.3-1.8 12.2-6.7 15.2-14.4 3.8-9.7 7.5-14.6 13-20.1 4.5-4.5 4.3-18 2.2-25-0.9-3.2-2.6-6.1-4.5-9.3-1.9-3.2-4-6.8-5.7-11.2v-0.1c-3.8-11.7 0.1-22.9 3.7-33.7 2-5.7 3.8-11 4.6-16.4 3.3-22.7 2.5-59.7 0-84.5-1.9-18.2-7.4-35.3-17.8-55.5-37.9-74.1-133.2-104.9-175.8-104.9-42.6 0-137.9 30.8-175.8 104.9-10.4 20.2-15.9 37.3-17.8 55.5-2.5 24.8-3.3 61.8 0 84.5 0.8 5.4 2.6 10.7 4.6 16.4 3.6 10.8 7.5 22 3.7 33.7v0.1c-1.7 4.4-3.8 8-5.7 11.2-1.9 3.2-3.6 6.1-4.5 9.3-2.1 7-2.3 20.5 2.2 25 5.5 5.5 9.2 10.4 13 20.1 3 7.7 11.9 12.6 15.2 14.4q0.4 0.3 0.8 0.5c1.4 0.8 4 0.1 4.8-0.2l0.5-0.2 0.6 0.1c5.9 0.9 12 0 18.5-1 5-0.7 10.2-1.5 15.6-1.5z"/>
				</g>
				<g id="&lt;Group&gt;">
					<path id="&lt;Path&gt;" class="s1" d="m451.5 247.3c-15.5 0-43.8 3.6-67.3 16 22.7-8.1 50.7-12 67.3-12 16.6 0 44.6 3.9 67.3 12-23.5-12.4-51.8-16-67.3-16z"/>
				</g>
				<g id="&lt;Group&gt;">
					<path id="&lt;Path&gt;" class="s1" d="m537 279.5c23.7 9.5 41.4 35 42.7 47.9-10.7-19.5-28.5-38.7-42.7-47.9z"/>
				</g>
				<g id="&lt;Group&gt;">
					<path id="&lt;Path&gt;" class="s1" d="m595.9 425.4c-2.7-2.3-5.3-4.6-8-6.6-2.7-2.2-5.4-4.1-8.3-5.9-2.9-1.8-5.9-3.4-9-4.7l-1.2-0.5-1.2-0.5c-0.8-0.3-1.6-0.6-2.4-0.9-1.6-0.6-3.3-1.1-4.9-1.7q2.6 0.1 5.2 0.6c1.7 0.3 3.4 0.7 5.1 1.3 3.3 1.1 6.6 2.6 9.6 4.5 1.5 0.9 2.9 1.9 4.3 3 1.3 1.1 2.7 2.2 4 3.4 2.5 2.4 4.8 5.1 6.8 8z"/>
				</g>
				<g id="&lt;Group&gt;">
					<path id="&lt;Path&gt;" class="s1" d="m526.7 409.2c-3.1 1.1-6.1 2.3-9 3.7q-4.2 2.2-8.1 5-3.8 2.9-7.4 6.2c-2.3 2.2-4.5 4.5-6.7 7.1 1.1-3.2 2.9-6.1 5-8.8 2.1-2.6 4.6-4.9 7.3-6.9 2.8-2 5.8-3.7 9-4.8 3.2-1.1 6.6-1.7 9.9-1.5z"/>
				</g>
				<g id="&lt;Group&gt;">
					<path id="&lt;Path&gt;" class="s1" d="m501.8 381.7c-20.5 8.6-20.3 17.2-26 20.8 7.6-1.6 13.1-5.2 16.7-11 3.6-5.9 9.3-9.8 9.3-9.8z"/>
				</g>
				<g id="&lt;Group&gt;">
					<path id="&lt;Path&gt;" class="s1" d="m591.2 577.2c-3.1-11-8.5-14.7-12.6-15.6 2.7 4.5 3.2 6.8 5 9 1.7 2.2 7.6 6.6 7.6 6.6z"/>
				</g>
				<g id="&lt;Group&gt;">
					<path id="&lt;Path&gt;" class="s1" d="m469.3 638.9c8 8.2 10.3 27.3 10.9 33.2-5.6-5.9-8-14.5-8.3-18.4 1.7 2.1 2.9 4.5 2.9 4.5 0 0-3.1-15.8-5.5-19.3z"/>
				</g>
				<g id="&lt;Group&gt;">
					<path id="&lt;Path&gt;" class="s1" d="m508.3 678c-0.2-5.1-7.5-17.7-14-26 5.9 3.8 9.9 10 9.9 10 0 0-8-12.1-9.2-20 4 8.1 6.8 9.7 10.2 13.9 3.3 4.2 6.6 14.3 3.1 22.1z"/>
				</g>
				<g id="&lt;Group&gt;">
					<path id="&lt;Path&gt;" class="s1" d="m455.1 641.6c0 0 0.4 7.9-1.3 11.7 0.1-4-2.3-17.7-2.3-17.7 0 0-2.4 13.7-2.3 17.7-1.7-3.8-1.3-11.7-1.3-11.7 0 0-1.9 6.2-1.4 11.1 0.5 4.9 2 8 2 8l0.1-2.6 2.9 11.6 2.9-11.6 0.1 2.6c0 0 1.5-3.1 2-8 0.5-4.9-1.4-11.1-1.4-11.1z"/>
				</g>
				<g id="&lt;Group&gt;">
					<path id="&lt;Path&gt;" class="s1" d="m451.5 680.7c0 0-3.8 0-9.3-3.2 2.1 3.8 5.4 8.2 9.3 8.2 3.9 0 7.2-4.4 9.3-8.2-5.5 3.2-9.3 3.2-9.3 3.2z"/>
				</g>
				<g id="&lt;Group&gt;">
					<path id="&lt;Path&gt;" class="s1" d="m641.7 370.2c-3.2-8.9-6.8-17.7-11.1-26.1-1-2.1-2.2-4.1-3.4-6.2-1.1-2.1-2.4-4-3.7-6-1.2-2.1-2.6-4-3.9-5.9-1.3-2-2.8-3.8-4.2-5.7-5.8-7.5-12.3-14.4-19.3-20.9-7-6.5-14.4-12.7-21.9-18.7q3.1 1.9 6.2 3.8l6.1 3.9c2 1.4 4 2.7 5.9 4.1 2 1.5 3.9 2.9 5.8 4.4 7.6 6.1 14.6 12.9 20.9 20.4 1.5 1.9 3.1 3.8 4.5 5.8 1.5 1.9 2.9 3.9 4.2 6 1.4 2 2.8 4 3.9 6.2 1.3 2.1 2.5 4.2 3.6 6.4 4.5 8.7 8 17.8 10.8 27.2z"/>
				</g>
				<g id="&lt;Group&gt;">
					<g id="&lt;Group&gt;">
						<path id="&lt;Path&gt;" class="s1" d="m609.8 465.2c0.8 1 1.5 2.1 2.4 3.4 0.4 0.6 0.9 1.4 2 2.2 0.6 0.4 1.3 0.6 2 0.7 0.7 0.1 1.3 0.1 1.9 0 1.1-0.3 2.1-0.8 3-1.6q0.6-0.5 1-1.2l0.6-0.9 2.4-3.6 2.3-3.6c1-1.5 1.7-2.9 2.1-4.7 0.2-0.9 0.3-1.8 0.2-2.8v-0.4-0.3q-0.1-0.3-0.2-0.6-0.1-0.6-0.2-1.2c-0.4-1.5-0.9-2.9-1.4-4.4-2.2-5.5-5.1-10.8-9-15.3-1.9-2.3-4.1-4.4-6.5-6.1-1.2-0.9-2.5-1.7-3.9-2.3l-1-0.4c-0.3-0.2-0.7-0.3-1-0.4q-1.1-0.4-2.2-0.6c2.5 1.5 4.7 3.3 6.7 5.3q1.5 1.5 2.9 3.1 1.3 1.6 2.5 3.3 2.4 3.5 4.2 7.3c1.3 2.5 2.3 5.1 3.2 7.7 0.4 1.3 0.8 2.6 1.1 3.9q0.1 0.5 0.1 0.9 0.1 0.2 0.1 0.5v0.2 0.1c0.1 0.4 0 0.9-0.1 1.4-0.3 1.1-0.8 2.2-1.5 3.2l-2.4 3.5c-0.8 1.2-1.6 2.4-2.4 3.6l-0.5 0.9q-0.2 0.2-0.4 0.4-0.3 0.3-0.7 0.3c-0.1 0.1-0.2 0.1-0.2 0.1 0 0 0 0 0 0-0.1 0-0.5-0.4-0.9-0.9-0.7-1.1-1.6-2.4-2.6-3.6z"/>
					</g>
				</g>
				<g id="&lt;Group&gt;">
					<path id="&lt;Path&gt;" class="s1" d="m600.1 422.8c9.3 5 17.7 17.4 21.8 29.1 0.4 1.1 0.3 2.2-0.3 3.2q-2.3 3.5-3.5 5.3c-0.5 0.9-1.8 0.9-2.4 0-2.7-4.4-10.2-15.2-20.3-20.7 6.4-0.1 16.8 8 16.8 8l-7.9-12.8 11.7 13c0 0-4.9-15.1-15.9-25.1z"/>
				</g>
				<g id="&lt;Group&gt;">
					<path id="&lt;Path&gt;" class="s1" d="m608.9 359.5c8.3 13.1 14.9 30.6 17 66.4 1.2-27.9-4.7-64.1-29.5-104.1 14.5 14.5 38 53.6 36.2 104.8 4.8-25.1-0.4-66.8-33-111.4 18.5 19.5 33.1 38.6 39.8 75.1 1.1 6.2 3.4 45.4 2 65.1-3.2 5-3.7 13.9-3.7 13.9 0 0 1.6-4.7 3.9-8 0.7 14.7 1.1 28.7-0.2 32.3-2.7 7.5-3.9 25.1-3.2 27.5-0.8 9.5 1.3 15.1 3.2 21-8.1-12.8-16.2-32.1-17.4-51.4-1.1-19.3 3.7-32.6 3.7-32.6 0 0-2-13.2-8.4-22.8l-5.1-6.7c0 0-4.3-19.8-4.3-24.4 0-4.5 2.6-17.5 0.4-28.3 3.4 11.8 3.9 19.8 3.7 27.6-0.3 7.8 6.2 21.9 6.2 21.9 0 0-0.9-43.4-11.3-65.9z"/>
				</g>
			</g>
		</g>
		<path id="4 0 4 PAGE  NOT  FOUND" class="s2" aria-label="4 0 4
PAGE  NOT  FOUND"  d="m389.8 93.9h-61.4l-4.3-6.5q2-4.3 3.8-8.3 1.8-4.1 3.5-7.9 1.8-3.8 3.5-7.5 1.7-3.8 3.4-7.5 1.6-3.7 3.4-7.5 1.8-3.9 3.5-7.9 1.9-4 3.9-8.3h5.8l12.4 6.8q-1.7 3.2-3.3 6.1-1.5 2.7-2.9 5.2-1.5 2.5-2.9 5-1.4 2.4-2.9 4.9-1.4 2.5-3 5.3-1.5 2.8-3.2 6l-5.6 9h46.3zm-11 15.1h-17.5v-28.1l1.8-19.3h15.7zm68.2 0.8q-8.3 0-14.2-3.2-6-3.3-9.7-9-3.8-5.6-5.5-12.8-1.8-7.2-1.7-15 0.1-11.4 4.5-19.7 4.3-8.5 11.5-13 7.3-4.6 16.3-4.6 8.4 0 14.2 3.1 6 3 9.6 8.4 3.8 5.3 5.4 12.2 1.8 6.9 1.7 14.6-0.1 11.8-4.3 20.6-4.2 8.8-11.5 13.6-7.2 4.8-16.3 4.8zm0.4-12.8q5.8 0 9-6.1 3.1-6.1 3.1-19.7 0-8.2-1.3-14-1.3-5.7-4-8.8-2.6-3-6.6-3-5.8 0-9 5.8-3.1 5.8-3.1 18.2 0 8.3 1.3 14.5 1.3 6.2 4 9.7 2.6 3.4 6.6 3.4zm123.2-3.1h-61.4l-4.3-6.5q2-4.3 3.8-8.3 1.8-4.1 3.6-7.9 1.8-3.8 3.4-7.5 1.7-3.7 3.4-7.5 1.7-3.7 3.4-7.5 1.8-3.8 3.6-7.9 1.8-4 3.8-8.3h5.8l12.5 6.8q-1.8 3.3-3.3 6.1-1.6 2.7-3 5.2-1.4 2.5-2.9 5-1.4 2.4-2.8 4.9-1.4 2.5-3 5.3-1.6 2.8-3.3 6l-5.6 9.1h46.3zm-11 15.1h-17.4v-28.2l1.8-19.3h15.6zm-483.4 103h-16v-63.9h6.2q4.4 0 8.8-0.3 4.4-0.4 9.2-0.4 7.7 0 13.2 2.2 5.5 2.2 8.4 7.1 3 5 3 13.3 0 11.3-6.7 17.5-6.8 6.1-19.5 6.1-2.5 0-4 0-1.5-0.1-2.6-0.1zm0-52.9v22.7q1.4 0.1 3 0.2 1.6 0.1 3.6 0.1 3 0 5.3-1.2 2.5-1.2 3.8-3.8 1.5-2.7 1.5-7.2 0-5.2-2.7-8.3-2.6-3.2-8.3-3-1.4 0-3.1 0.2-1.7 0-3.1 0.3zm59 9.9l-12.1 43h-16.8l22.3-64.3h18.2l22.4 64.3h-16.9l-12.9-43-2-8.4zm17.9 31.1h-32.9l1.8-11.1h29.4zm16.3-19.7q0-8.9 2.5-15.2 2.6-6.2 7.1-10.2 4.5-3.9 10.5-5.7 6-1.9 12.9-1.9 4.7 0 7.9 0.5 3.2 0.4 5.6 1 2.5 0.6 4.9 1l-0.4 13.4q-2.5-1.3-6.7-2.3-4.2-1-10.6-1-5.5 0-9.5 2.3-3.8 2.3-5.9 6.6-2.1 4.3-2.1 10.4 0 6.1 1.7 11 1.7 4.9 5 7.7 3.3 2.8 8.1 2.8 3.3 0 5.5-0.4 2.2-0.4 3.7-0.9v-13l1.6 1.9-10.7-0.8v-11.4h23.8v32.2q-1.9 0-3.8 0.7-2 0.7-4.5 1.5-2.5 0.9-6.2 1.5-3.7 0.6-9.2 0.6-9.5 0-16.5-3.8-7-3.9-10.9-11.1-3.8-7.2-3.8-17.4zm109.5 31.6h-42.9v-63.9h40.4v12h-24.5v13.5h18.9v11.6h-18.9v14.6h27zm55.2 0h-14.6v-63.9h15l21.9 35.1 8.1 17.2h-2.9l-2.6-24.2v-28.1h14.6v63.9h-16.1l-20.8-34.2-9.3-19.6h3.5l3.2 26.2zm79.5 0.7q-9.4 0.2-16.1-3.8-6.7-4.1-10.2-11.5-3.4-7.5-3.3-17.7 0.3-11.3 4.2-18.3 4-7.1 10.9-10.4 6.9-3.3 15.7-3.6 9.1-0.2 15.6 3.7 6.5 3.9 9.9 11.3 3.4 7.4 3.3 17.5-0.3 11.4-4.1 18.6-3.8 7.1-10.5 10.6-6.6 3.4-15.4 3.6zm0.3-11.5q6.2 0 9.8-5 3.5-5.1 3.5-16.7 0-6-1.4-10.6-1.3-4.5-4.1-7.1-2.8-2.5-7.1-2.5-3.9 0-7.2 1.9-3.2 2-5.1 6.5-1.9 4.6-1.9 12.5 0 6.1 1.5 10.8 1.5 4.7 4.5 7.5 3 2.7 7.5 2.7zm67.7 10.8h-16.2v-51.6h-17v-12.3h50.2v12.3h-17zm71.7 0h-16v-63.9h39.9v12h-23.9v15.2h18.1v11.8h-18.1zm57.1 0.7q-9.5 0.2-16.2-3.8-6.6-4-10.1-11.5-3.5-7.5-3.3-17.6 0.2-11.4 4.2-18.4 4-7 10.9-10.3 6.8-3.4 15.7-3.6 9.1-0.3 15.6 3.7 6.5 3.9 9.9 11.3 3.4 7.4 3.2 17.5-0.2 11.3-4 18.5-3.8 7.2-10.5 10.6-6.7 3.5-15.4 3.6zm0.3-11.5q6.1 0 9.7-5 3.6-5 3.6-16.7 0-6-1.4-10.5-1.4-4.6-4.2-7.1-2.8-2.6-7.1-2.6-3.9 0-7.1 2-3.2 1.9-5.2 6.5-1.8 4.5-1.8 12.4 0 6.1 1.5 10.9 1.5 4.7 4.4 7.4 3 2.7 7.6 2.7zm65.9 11.5q-9.9 0-15.8-3.4-5.9-3.4-8.6-9.6-2.6-6.2-2.6-14.5l0.2-37.1h15.9l-0.2 35.2q0 6.7 1.2 10.4 1.2 3.6 3.6 5 2.5 1.4 6.1 1.4 3.6 0 6-1.5 2.4-1.4 3.6-5.1 1.2-3.6 1.2-10.2v-35.2h15.8v37.4q0 12.8-6.3 20-6.3 7.2-20.1 7.2zm53.5-0.7h-14.5v-63.9h14.9l21.9 35.1 8.2 17.2h-3l-2.5-24.1v-28.2h14.5v63.9h-16.1l-20.7-34.2-9.4-19.6h3.5l3.2 26.2zm53.2 0v-63.9q1 0 2 0 1 0 2 0 1 0 2 0 1.6 0 4.5-0.1 3-0.2 6.5-0.4 3.5-0.1 6.4-0.1 16.3 0 23.9 8.1 7.5 8.1 7.5 22.9 0 10.9-3.8 18.6-3.8 7.6-11.1 11.7-7.2 4-17.4 3.9-4.7-0.1-8.9-0.4-4.2-0.3-7.9-0.3-0.9 0-1.9 0-0.9 0-1.9 0-0.9 0-1.9 0zm16.1-52.4v40.7q1.3 0.3 3.3 0.5 1.9 0.1 4 0.1 4.5 0 7.8-2.2 3.4-2.3 5.2-6.9 1.8-4.7 1.8-11.9 0-7.7-1.6-12.3-1.7-4.6-5.2-6.6-3.4-2-8.6-2-1.6 0-3.5 0.2-2 0.2-3.2 0.4z"/>
	</g>
</svg>