<?xml version="1.0"?>
<svg width="512" height="512" xmlns="http://www.w3.org/2000/svg" xmlns:svg="http://www.w3.org/2000/svg">
 <!-- Created with SVG-edit - https://github.com/SVG-Edit/svgedit-->

 <g class="layer">
  <title>Layer 1</title>
  <g id="svg_19">
   <rect fill="#101d93" height="513" id="svg_21" stroke="#ffffff" stroke-width="0" width="513" x="0" y="0"/>
   <g id="svg_24">
    <line fill="none" id="svg_11" stroke="#edcd00" stroke-width="30" x1="151.09" x2="151.09" y1="87.42" y2="433.81"/>
    <line fill="none" id="svg_12" stroke="#edcd00" stroke-width="30" x1="187.46" x2="187.46" y1="121.18" y2="402.57"/>
    <line fill="none" id="svg_13" stroke="#edcd00" stroke-width="30" x1="223.82" x2="223.82" y1="162.15" y2="355.54"/>
    <line fill="none" id="svg_1" stroke="#edcd00" stroke-width="30" x1="114.9" x2="114.9" y1="38.3" y2="482.69"/>
    <path d="m128.4,53.3c49.58,2 72.16,7 162.75,1" fill="none" id="svg_4" stroke="#edcd00" stroke-width="30"/>
    <path d="m286.4,54.3c37,0 138,36 141,207" fill="none" id="svg_8" stroke="#edcd00" stroke-width="30"/>
    <path d="m125.03,464.88c49.58,2 72.16,7 162.75,1" fill="none" id="svg_9" stroke="#edcd00" stroke-width="30" transform="rotate(180 206.401 466.804)"/>
    <path d="m426.98,260.55c-36.74,0 -139.76,30 -141.65,208" fill="none" id="svg_10" stroke="#edcd00" stroke-width="30" transform="rotate(180 356.361 364.547)"/>
   </g>
  </g>
 </g>
</svg>