<?xml version="1.0"?>
<svg width="107.00000000000001" height="77" xmlns="http://www.w3.org/2000/svg" xmlns:svg="http://www.w3.org/2000/svg" xmlns:xlink="http://www.w3.org/1999/xlink" enable-background="new 0 0 136 90" version="1.0" xml:space="preserve">
 <style type="text/css">.st0{fill:#F47721;}</style>
 <defs>
  <symbol height="77" id="svg_19" width="107" xmlns="http://www.w3.org/2000/svg" xmlns:svg="http://www.w3.org/2000/svg" xmlns:xlink="http://www.w3.org/1999/xlink">
   <style type="text/css">.st0{fill:#F47721;}</style>
   <symbol id="svg_8" viewBox="-53.1 -15.1 106.2 30.1">
    <g id="svg_11">
     <path class="st0" d="m-34.2,6.3c-1.6,0 -3,-1.3 -3,-2.9c0,0 0,0 0,0c0,-1.1 0.6,-2 1.5,-2.6c0.9,-0.5 2.1,-0.5 3,0c0.9,0.5 1.5,1.5 1.5,2.6c0,1.6 -1.4,2.9 -3,2.9c0,0 0,0 0,0l0,0zm-8.9,-8.1c-1.2,0 -2.2,-0.9 -2.2,-2.2c0,0 0,-0.1 0,-0.1c0,-1.2 1,-2.2 2.2,-2.2c1.2,0 2.2,1 2.2,2.2c0.1,1.3 -0.9,2.3 -2.2,2.3c0,0 0,0 0,0l0,0z" id="svg_15"/>
     <path d="m-51.4,-2c0.9,0 1.6,0.8 1.6,1.7c0,0.9 -0.8,1.6 -1.7,1.6c-0.9,0 -1.6,-0.8 -1.6,-1.7c0,-0.9 0.8,-1.6 1.7,-1.6l0,0zm25.4,2.8c0,-0.9 0.7,-1.6 1.6,-1.6c0,0 0,0 0,0c0.6,0 1.1,0.3 1.4,0.8c0.3,0.5 0.3,1.1 0,1.6c-0.3,0.5 -0.8,0.8 -1.4,0.8c-0.4,0 -0.8,-0.2 -1.1,-0.5c-0.4,-0.3 -0.5,-0.7 -0.5,-1.1l0,0zm0.3,5.1c0.8,0 1.5,0.7 1.5,1.5s-0.7,1.6 -1.5,1.6s-1.5,-0.7 -1.5,-1.5s0.6,-1.6 1.5,-1.6zm-15.3,-2.1c-0.8,0 -1.5,-0.7 -1.5,-1.5s0.7,-1.5 1.5,-1.5c0.8,0 1.5,0.7 1.5,1.5s-0.7,1.5 -1.5,1.5zm7.5,7.4c-0.8,0 -1.4,-0.7 -1.4,-1.5c0,-0.8 0.7,-1.4 1.5,-1.4c0.8,0 1.4,0.7 1.4,1.5c0,0.8 -0.7,1.4 -1.5,1.4l0,0zm-9.9,-20.1c0,-0.8 0.6,-1.4 1.4,-1.4c0,0 0,0 0,0c0.6,0 1.1,0.3 1.3,0.9c0.2,0.5 0.1,1.1 -0.3,1.6c-0.4,0.4 -1,0.5 -1.5,0.3c-0.5,-0.3 -0.9,-0.8 -0.9,-1.4l0,0zm4.6,-6.2c0.8,0 1.4,0.6 1.4,1.4c0.1,0.5 -0.2,1.1 -0.6,1.4c-0.5,0.3 -1.1,0.3 -1.5,0c-0.5,-0.3 -0.7,-0.8 -0.6,-1.4c-0.1,-0.7 0.5,-1.4 1.3,-1.4l0,0zm-9.1,6.6c-0.8,0.1 -1.5,-0.5 -1.5,-1.3c0,-0.4 0.1,-0.8 0.4,-1.1c0.5,-0.6 1.4,-0.6 2,-0.1c0.3,0.3 0.5,0.6 0.5,1c-0.1,0.8 -0.6,1.4 -1.4,1.5l0,0zm11.9,1.9c0,-0.8 0.7,-1.3 1.4,-1.3s1.4,0.6 1.4,1.3c0,0.5 -0.2,1 -0.7,1.3c-0.5,0.3 -1,0.3 -1.5,0c-0.3,-0.3 -0.6,-0.8 -0.6,-1.3zm6.2,1.3c-0.8,0 -1.4,-0.6 -1.4,-1.4c0,0 0,0 0,0c0,-0.5 0.3,-1 0.7,-1.2c0.4,-0.3 1,-0.2 1.4,0s0.7,0.7 0.7,1.2c0,0.8 -0.6,1.4 -1.4,1.4c0,0 0,0 0,0z" id="svg_14"/>
     <path class="st0" d="m-30.6,-3.3c0,0.7 -0.6,1.3 -1.4,1.3c0,0 0,0 0,0c-0.7,0 -1.3,-0.6 -1.3,-1.4c0,-0.7 0.6,-1.3 1.4,-1.4c0.4,0 0.7,0.2 1,0.4s0.3,0.7 0.3,1.1l0,0z" id="svg_13"/>
     <path d="m-44.2,9.4c-0.7,0 -1.3,-0.6 -1.3,-1.3c0,-0.7 0.6,-1.3 1.3,-1.3c0.7,0 1.3,0.6 1.3,1.3c0.1,0.7 -0.5,1.3 -1.3,1.3c0,0 0,0 0,0l0,0zm-5.2,-5.2c0,0.7 -0.6,1.3 -1.3,1.3c-0.7,0 -1.3,-0.6 -1.3,-1.3s0.6,-1.3 1.3,-1.3c0.7,0 1.3,0.6 1.3,1.3l0,0zm7.1,8.1c0,0.7 -0.6,1.3 -1.3,1.3c-0.7,0 -1.3,-0.6 -1.3,-1.3c0,-0.7 0.6,-1.3 1.3,-1.3c0.7,0 1.3,0.6 1.3,1.3zm15.3,-8.5c0,0.7 -0.6,1.3 -1.3,1.3s-1.3,-0.6 -1.3,-1.3s0.6,-1.3 1.3,-1.3c0.3,0 0.7,0.1 0.9,0.4s0.4,0.5 0.4,0.9l0,0zm-20.7,3.9c0,0.7 -0.6,1.3 -1.3,1.3c-0.7,0 -1.3,-0.6 -1.3,-1.3c0,-0.7 0.6,-1.3 1.3,-1.3c0.7,0 1.3,0.6 1.3,1.3c0,0 0,0 0,0l0,0zm22.8,-12.6c-0.3,0 -0.6,-0.1 -0.9,-0.3c-0.2,-0.2 -0.4,-0.5 -0.4,-0.9c0,-0.7 0.5,-1.3 1.2,-1.3c0.7,0 1.3,0.6 1.3,1.3c0,0 0,0 0,0c0,0.7 -0.5,1.2 -1.2,1.2l0,0zm-11.2,16.4c0,0.3 -0.1,0.6 -0.4,0.9s-0.5,0.4 -0.9,0.4c-0.6,0 -1.2,-0.6 -1.2,-1.2c0,-0.7 0.5,-1.2 1.2,-1.2c0.7,-0.2 1.3,0.4 1.3,1.1zm-3.7,3.6c-0.7,0 -1.2,-0.5 -1.2,-1.2c0,-0.5 0.2,-0.9 0.6,-1.1c0.4,-0.2 0.9,-0.2 1.3,0c0.4,0.2 0.6,0.7 0.6,1.1c-0.1,0.6 -0.6,1.2 -1.3,1.2zm-0.8,-7.7c0.5,0 0.9,0.2 1.1,0.6c0.2,0.4 0.2,0.9 0,1.3c-0.2,0.4 -0.7,0.6 -1.1,0.6c-0.5,0 -0.9,-0.2 -1.1,-0.6c-0.2,-0.4 -0.2,-0.9 0,-1.3c0.2,-0.5 0.6,-0.7 1.1,-0.6zm6.1,-9.3c0,0.3 -0.1,0.6 -0.4,0.8s-0.5,0.3 -0.9,0.3c-0.6,0 -1.2,-0.6 -1.2,-1.2c0,-0.7 0.5,-1.2 1.2,-1.2c0,0 0,0 0,0c0.8,0.1 1.3,0.6 1.3,1.3c0,-0.1 0,-0.1 0,0l0,0zm4.3,14.4c0,0.6 -0.5,1.1 -1.1,1.1c-0.6,0 -1.1,-0.5 -1.1,-1.1c0,0 0,0 0,0c0,-0.6 0.5,-1.1 1.2,-1.1c0.3,0 0.6,0.1 0.8,0.3c0.1,0.2 0.2,0.5 0.2,0.8l0,0zm4.3,-21.4c0,0.3 -0.1,0.6 -0.3,0.8c-0.2,0.2 -0.5,0.3 -0.8,0.3c-0.6,0 -1.1,-0.5 -1.1,-1.1c0,-0.6 0.5,-1.1 1.1,-1.1s1.1,0.5 1.1,1.1zm-10.1,17.2c0,0.6 -0.5,1.1 -1.1,1.1c-0.6,0 -1.1,-0.5 -1.1,-1.1c0,-0.6 0.5,-1.1 1.1,-1.1c0.6,0 1.1,0.5 1.1,1.1zm-1.7,-12.5c0,0.6 -0.5,1.1 -1.1,1.1c-0.6,0 -1.1,-0.5 -1.1,-1.1c0,-0.6 0.5,-1.1 1.1,-1.1c0.7,0 1.1,0.5 1.1,1.1l0,0zm-11,3c0,-0.6 0.5,-1.1 1.1,-1.1s1.1,0.5 1.1,1.1c0,0.6 -0.5,1.1 -1,1.1c-0.2,0 -0.4,0 -0.5,-0.1c-0.5,-0.2 -0.7,-0.6 -0.7,-1zm13.8,-9c-0.6,0 -1,-0.5 -1,-1.1c0,-0.6 0.5,-1 1,-1c0.6,0 1,0.5 1,1.1c0,0.6 -0.5,1 -1,1c0,0 0,0 0,0l0,0zm3.4,-2.6c0,0.6 -0.5,1 -1,1c-0.6,0 -1,-0.5 -1,-1s0.5,-1 1,-1c0.5,-0.1 1,0.4 1,1zm1.6,19c0.3,0 0.5,0.1 0.7,0.3c0.2,0.2 0.3,0.4 0.3,0.7c0,0.3 -0.1,0.5 -0.3,0.7c-0.2,0.2 -0.4,0.3 -0.7,0.3c-0.5,0 -1,-0.5 -1,-1c0,-0.3 0.1,-0.5 0.3,-0.7s0.4,-0.3 0.7,-0.3l0,0zm0.2,-6c0,-0.5 0.4,-1 1,-1c0.4,0 0.8,0.3 0.9,0.7c0.2,0.5 -0.1,1.1 -0.6,1.3c-0.3,0.1 -0.6,0.1 -0.8,-0.1c-0.3,-0.2 -0.5,-0.6 -0.5,-0.9zm-16.6,-12.3c0,-0.3 0.1,-0.5 0.3,-0.7c0.2,-0.2 0.4,-0.3 0.7,-0.3c0.3,0 0.7,0.2 0.8,0.5c0.2,0.3 0.2,0.7 0,1c-0.2,0.3 -0.5,0.5 -0.8,0.5c-0.5,0 -0.9,-0.4 -1,-1c0,0 0,0 0,0zm1.5,15.3c0.3,0 0.7,0.2 0.8,0.5c0.2,0.3 0.2,0.7 0,1c-0.2,0.3 -0.5,0.5 -0.8,0.5c-0.5,0 -1,-0.4 -1,-1s0.5,-1 1,-1l0,0zm1.2,-2.6c0,0.3 -0.1,0.5 -0.3,0.7c-0.2,0.2 -0.4,0.3 -0.7,0.3c-0.5,0 -1,-0.4 -1,-1c0,-0.3 0.1,-0.5 0.3,-0.7c0.2,-0.2 0.4,-0.3 0.7,-0.3c0.3,0 0.5,0.1 0.7,0.3c0.2,0.2 0.3,0.5 0.3,0.7l0,0zm8.3,12.5c0.5,0 0.9,0.4 0.9,0.9c0,0.5 -0.4,0.9 -0.9,0.9c-0.5,0 -0.9,-0.4 -0.9,-0.9c0,-0.5 0.4,-0.9 0.9,-0.9zm11.8,-15.8c0,0.2 -0.1,0.5 -0.3,0.6s-0.4,0.3 -0.6,0.3c-0.5,0 -0.9,-0.4 -0.9,-0.9c0,-0.5 0.4,-0.9 0.9,-0.9c0.5,0 0.9,0.4 0.9,0.9c0,0 0,0 0,0l0,0zm-27.5,-0.7c-0.2,0 -0.5,-0.1 -0.6,-0.3c-0.2,-0.2 -0.3,-0.4 -0.2,-0.6c0,-0.5 0.4,-0.9 0.9,-0.9c0.5,0 0.9,0.4 0.9,0.9c-0.1,0.5 -0.5,0.9 -1,0.9l0,0zm12.8,-6.1c-0.5,0 -0.9,-0.4 -0.8,-0.9c0,-0.5 0.4,-0.9 0.9,-0.9c0.5,0 0.9,0.4 0.9,0.9c0,0.2 -0.1,0.5 -0.3,0.6c-0.2,0.2 -0.4,0.3 -0.7,0.3l0,0zm10.9,6c0,0.2 -0.1,0.5 -0.2,0.6c-0.2,0.2 -0.4,0.3 -0.6,0.3c-0.5,0 -0.9,-0.3 -0.9,-0.8c0,0 0,0 0,-0.1c0,-0.5 0.4,-0.9 0.9,-0.9c0,0 0,0 0,0c0.4,0 0.8,0.4 0.8,0.9l0,0zm-12.4,3.6c0,-0.2 0.1,-0.5 0.2,-0.6c0.2,-0.2 0.4,-0.3 0.6,-0.3c0.5,0 0.9,0.4 0.9,0.8c0,0.5 -0.4,0.9 -0.9,0.9c-0.4,0.1 -0.7,-0.3 -0.8,-0.8l0,0zm2,-7.7c0,0.2 -0.1,0.5 -0.2,0.6c-0.2,0.2 -0.4,0.2 -0.6,0.2c-0.5,0 -0.9,-0.4 -0.9,-0.9c0,-0.5 0.4,-0.9 0.9,-0.9c0.4,0.1 0.8,0.5 0.8,1l0,0zm-8.7,1.1c-0.3,0 -0.6,-0.2 -0.7,-0.5c-0.1,-0.3 0,-0.7 0.2,-0.9s0.6,-0.3 0.9,-0.2c0.3,0.1 0.5,0.4 0.5,0.8c-0.1,0.4 -0.4,0.8 -0.9,0.8l0,0zm3.9,-6.2c-0.2,0 -0.4,-0.1 -0.5,-0.2c-0.1,-0.1 -0.2,-0.4 -0.2,-0.6c0,-0.4 0.3,-0.8 0.7,-0.8c0.2,0 0.3,0 0.4,0.1c0.2,0.2 0.4,0.4 0.3,0.7c0.1,0.5 -0.2,0.8 -0.7,0.8c0.1,0 0,0 0,0l0,0zm-4.6,24.3c-0.3,0 -0.6,-0.2 -0.7,-0.5c-0.1,-0.3 -0.1,-0.6 0.2,-0.8c0.2,-0.2 0.5,-0.3 0.8,-0.2c0.3,0.1 0.5,0.4 0.5,0.7c-0.1,0.4 -0.4,0.7 -0.8,0.8l0,0zm15.7,-20.5c-0.4,0 -0.8,-0.3 -0.8,-0.7c0,-0.2 0,-0.3 0.1,-0.5c0.1,-0.2 0.4,-0.4 0.7,-0.3c0.4,0 0.8,0.3 0.8,0.7c0,0.2 0,0.3 -0.1,0.5c-0.2,0.2 -0.4,0.4 -0.7,0.3zm1.5,-2.1c-0.4,0 -0.8,-0.3 -0.8,-0.7c0,-0.2 0,-0.3 0.1,-0.4c0.1,-0.2 0.4,-0.4 0.7,-0.4c0.4,0 0.8,0.3 0.8,0.7c0,0.2 0,0.3 -0.1,0.4c-0.1,0.3 -0.4,0.5 -0.7,0.4zm-19.4,3.9c0,0.3 -0.1,0.5 -0.3,0.7c-0.2,0.1 -0.5,0.1 -0.7,0c-0.2,-0.1 -0.4,-0.4 -0.3,-0.6c0,-0.4 0.3,-0.6 0.7,-0.7s0.5,0.2 0.6,0.6l0,0zm1.3,1.5c0.2,0 0.4,0.1 0.5,0.2c0.1,0.1 0.2,0.3 0.2,0.5c0,0.4 -0.3,0.7 -0.7,0.7c-0.2,0 -0.4,-0.1 -0.5,-0.2c-0.1,-0.1 -0.2,-0.3 -0.2,-0.5c0,-0.4 0.3,-0.7 0.7,-0.7c0,0 0,0 0,0l0,0zm17.2,5.5c0,0.4 -0.3,0.6 -0.6,0.7c-0.4,0 -0.6,-0.3 -0.6,-0.7c0,0 0,0 0,0c0,-0.4 0.3,-0.6 0.7,-0.6c0,0 0,0 0,0c0.3,0 0.5,0.3 0.5,0.6l0,0zm-7.8,6.2c0,0.2 -0.1,0.3 -0.2,0.5c-0.1,0.1 -0.3,0.2 -0.5,0.2c-0.2,0 -0.3,-0.1 -0.4,-0.2s-0.2,-0.3 -0.2,-0.4c0,-0.3 0.3,-0.6 0.6,-0.6c0,0 0,0 0,0c0.4,-0.1 0.7,0.2 0.7,0.5l0,0zm14.3,-1.6c0,0.3 -0.3,0.6 -0.6,0.6c-0.3,0 -0.6,-0.3 -0.6,-0.6c0,-0.3 0.2,-0.6 0.6,-0.6c0.3,0 0.6,0.2 0.6,0.6c0,0 0,0 0,0zm-3.8,6.3c0,0.3 -0.3,0.6 -0.6,0.6c0,0 0,0 0,0c-0.3,0 -0.6,-0.3 -0.6,-0.6c0,-0.2 0.1,-0.3 0.2,-0.4c0.1,-0.1 0.3,-0.2 0.4,-0.2c0.2,0 0.3,0.1 0.4,0.2c0.1,0.1 0.2,0.3 0.2,0.4l0,0zm-18.7,-8.4c0,0.2 -0.1,0.3 -0.2,0.4c-0.1,0.2 -0.3,0.2 -0.5,0.2c-0.3,0 -0.5,-0.2 -0.5,-0.5c0,0 0,-0.1 0,-0.1c0,-0.3 0.3,-0.6 0.6,-0.6c0.3,0.1 0.6,0.3 0.6,0.6l0,0zm11.2,-16.5c0,0.3 -0.3,0.6 -0.6,0.6c-0.3,0 -0.6,-0.3 -0.6,-0.6c0,-0.3 0.2,-0.6 0.5,-0.6c0,0 0,0 0,0c0.5,0.1 0.7,0.3 0.7,0.6l0,0z" id="svg_12"/>
    </g>
   </symbol>
   <g class="layer" id="svg_5">
    <title>Layer 1</title>
    <use height="30.1" id="svg_7" overflow="visible" transform="matrix(1 0 0 1 67.5751 44.569)" width="106.2" x="-67.29" xlink:href="#svg_8" y="-21.59"/>
   </g>
  </symbol>
 </defs>
 <symbol id="A" viewBox="-53.1 -15.1 106.2 30.1">
  <g id="svg_1">
   <path d="m-5.9,2.8l1.6,0l0.1,1.6c0.1,1 0.6,1.4 1.6,1.5c1.5,0.1 3,0.1 4.6,-0.1c0.7,-0.1 1.2,-0.6 1.3,-1.2c0.2,-0.8 0.2,-1.7 0,-2.5c-0.1,-0.9 -0.7,-1.3 -1.6,-1.4l-4,-0.3l-1.3,-0.2c-1.2,-0.1 -2.1,-1 -2.2,-2.2c-0.2,-1 -0.1,-2.1 0.1,-3.1c0.2,-1.1 1.1,-1.9 2.2,-2c1.9,-0.4 3.9,-0.4 5.9,0c1.5,0.1 2.2,1.1 2.3,2.8l0,1l-1.6,0l-0.1,-1.2c0,-0.7 -0.6,-1.3 -1.3,-1.3c-1.5,-0.2 -3,-0.2 -4.5,0c-1,0.2 -1.4,0.6 -1.5,1.6c0,0.6 0,1.1 0,1.7c0.1,0.8 0.9,1.5 1.8,1.5l2.7,0.1l2.5,0.3c1.1,0.1 2,1 2.1,2.1c0.2,1.1 0.2,2.3 0,3.4c-0.1,1.3 -1.1,2.2 -2.3,2.3c-1.9,0.3 -3.9,0.3 -5.9,0c-1.6,-0.3 -2.4,-1.2 -2.5,-2.9c-0.1,-0.5 -0.1,-1 0,-1.5l0,0z" id="svg_2"/>
   <path class="st0" d="m-10.1,-0.2c0.1,0 0.2,0.1 0.3,0.1l0.5,0.1c1,0.1 1.7,0.9 1.8,1.9c0.2,1.1 0.1,2.2 -0.1,3.3c-0.3,1.3 -1.4,2.2 -2.7,2.1l-4,0c-0.6,0 -1.2,-0.1 -1.8,-0.3c-1.1,-0.3 -1.9,-1.3 -2,-2.4c-0.1,-0.6 0,-1.2 -0.1,-1.7c0,-0.2 0.1,-0.3 0.3,-0.3c0.3,0 0.7,0 1,0c0.2,0 0.3,0.1 0.3,0.3c0,0.6 0,1.1 0.1,1.7c0.1,0.9 0.5,1.3 1.5,1.3l3.4,0.1c0.5,0 1,-0.1 1.5,-0.2c0.5,-0.1 0.9,-0.5 1,-1c0.2,-1 0.2,-2 0,-3c-0.2,-0.8 -0.8,-1.3 -1.8,-1.3s-1.8,-0.1 -2.8,-0.1c-0.3,0 -0.4,-0.1 -0.4,-0.3s-0.1,-0.7 0.1,-0.9s0.6,-0.1 0.9,-0.1l2.2,-0.1c0.9,-0.1 1.2,-0.5 1.4,-1.4c0.1,-0.8 0.1,-1.6 0,-2.4c-0.1,-0.6 -0.5,-1 -1.1,-1.1c-0.3,-0.1 -0.8,-0.1 -1.2,-0.1l-3.3,0.1c-0.8,0.1 -1.2,0.6 -1.3,1.5l-0.1,1.2c0,0.2 0,0.3 -0.2,0.3l-1.1,0c-0.1,0 -0.2,-0.1 -0.2,-0.2c-0.1,-0.8 0,-1.6 0.3,-2.4c0.3,-0.9 1,-1.5 1.9,-1.7c1.9,-0.3 3.9,-0.3 5.8,0c1.2,0.1 2.1,1 2.2,2.2c0.2,1 0.2,2 0,3c-0.1,1 -1,1.8 -2,1.8c-0.1,-0.1 -0.2,-0.1 -0.3,0c0,0 0,0 0,0l0,0z" id="svg_3"/>
   <path d="m31.9,7.3l-1.5,0c-0.1,0 -0.2,-0.1 -0.3,-0.2c-0.3,-0.9 -0.7,-1.7 -1,-2.6c0,-0.2 -0.2,-0.3 -0.4,-0.3c-2.3,0 -4.6,0 -6.8,0c-0.2,0 -0.4,0.1 -0.4,0.3l-0.9,2.5c0,0.2 -0.2,0.3 -0.4,0.3l-1.4,0l0.6,-1.6c1.5,-4.2 3,-8.5 4.6,-12.7c0,-0.2 0.2,-0.3 0.4,-0.3l1.6,0c0.1,0 0.2,0 0.3,0.1c0.1,0.1 0.2,0.2 0.2,0.3c1.5,4.2 3.1,8.3 4.6,12.4l0.8,1.8zm-6.5,-13.2l0,0l-3.3,8.7l6.5,0l-3.2,-8.7zm-7.4,3.1l-1.6,0l0,-0.4c0,-0.5 0,-0.9 -0.1,-1.4c-0.1,-0.8 -0.9,-1.4 -1.7,-1.4c-1.5,-0.2 -2.9,-0.1 -4.4,0.1c-1.4,0.3 -2,1 -2,2.4l0,6.8c0,0.3 0.1,0.6 0.1,0.8c0.2,1 1.1,1.8 2.1,1.7l4.2,0c0.3,0 0.6,-0.1 0.8,-0.2c0.6,-0.3 1,-0.9 1,-1.6c0,-0.5 0,-1 0,-1.5c0,-0.2 0.1,-0.3 0.3,-0.3l1.4,0c0,1.1 0.1,2.2 -0.3,3.2c-0.4,1 -1.3,1.6 -2.4,1.7c-1.1,0.1 -2.3,0.1 -3.5,0.2c-0.7,0 -1.4,0 -2.1,-0.1c-1.7,-0.1 -3.1,-1.6 -3.2,-3.3c0,-0.3 -0.1,-0.6 -0.1,-0.9l0,-6.1c0,-0.5 0.1,-0.9 0.2,-1.4c0.4,-1.6 1.4,-2.4 2.9,-2.7c0.7,-0.1 1.4,-0.2 2.1,-0.2c1.2,0 2.3,0 3.5,0.1c1.5,0.2 2.3,1 2.6,2.5c0.1,0.3 0.2,0.8 0.2,1.2c0,0.3 0,0.5 0,0.8l0,0zm25.7,-4.5l9.3,0l0,1.4l-7.7,0l0,5l7.4,0l0,1.2c0,0.1 -0.1,0.1 -0.2,0.1c-0.1,0 -0.2,0 -0.2,0l-7,0l0,5.4l7.7,0l0,1.4l-9.3,0l0,-14.5zm-8.6,13.2l7.4,0l0,1.4l-9,0l0,-14.6l1.6,0l0,13.2z" id="svg_4"/>
  </g>
 </symbol>
 <g class="layer">
  <title>Layer 1</title>
  <use height="30.1" id="svg_9" overflow="visible" transform="matrix(1.45329 0 0 1.61599 96.5433 43.9649)" width="106.2" x="-100.23" xlink:href="#A" y="-3.39"/>
  <rect height="0" id="svg_10" width="0" x="-81.82" y="40.45"/>
  <use id="svg_20" transform="matrix(1.56997 0 0 1.52417 -169.101 -82.5826)" x="127.3" xlink:href="#svg_19" y="32.74"/>
 </g>
</svg>