<?xml version="1.0"?>
<svg width="350" height="250" xmlns="http://www.w3.org/2000/svg" xmlns:svg="http://www.w3.org/2000/svg">
 <style>.st0{fill:#000}.st1{fill:none}.st2{fill:#2684ff}.st3{fill:url(#SVGID_1_)}</style>
 <title>Bitbucket-blue</title>
 <g class="layer">
  <title>Layer 1</title>
  <linearGradient gradientTransform="matrix(1 0 0 -1 0 136.077)" gradientUnits="userSpaceOnUse" id="SVGID_1_" x1="134.97" x2="69.6" y1="72.26" y2="21.24">
   <stop offset="0.18" stop-color="#0052cc"/>
   <stop offset="1" stop-color="#2684ff"/>
  </linearGradient>
  <path class="st0" d="m24.66,177.74c11.58,0 17.24,6.53 17.24,17.07c0,7.91 -3.13,12.68 -9.54,14.5c8.4,1.6 12.56,6.85 12.56,16.06c0,10.44 -6.17,17.56 -18.86,17.56l-23.5,0l0,-65.19l22.1,0zm-14.29,8.5l0,19.43l13.26,0c7.38,0 10.42,-3.86 10.42,-10.17s-3.26,-9.31 -10.42,-9.31l-13.26,0.05zm0,27.39l0,20.29l15.93,0c7.48,0 10.83,-3.1 10.83,-9.63c0,-6.95 -3.22,-10.71 -10.98,-10.71l-15.79,0.05l0.01,0zm47.26,-39.38c2.67,-0.22 4.99,2.09 5.19,5.14l0,0.81c0,3.27 -2.34,5.94 -5.19,5.94s-5.19,-2.68 -5.19,-5.94c-0.19,-3.05 1.82,-5.72 4.48,-5.94c0.24,-0.05 0.46,-0.05 0.7,0zm-3.78,19.06l7.48,0l0,49.62l-7.48,0l0,-49.62zm35.88,41.27c1.59,-0.05 3.13,-0.27 4.66,-0.69l0,8.25c-1.64,0.54 -3.32,0.81 -4.99,0.81c-9.3,0 -13.78,-6.26 -13.78,-15.47l0,-26.23l-7,0l0,-7.91l7,0l0,-10.54l7.24,0l0,10.54l11.53,0l0,7.91l-11.53,0l0,26.06c0,4.33 2.24,7.27 6.87,7.27zm35.4,9.31c-6.3,0 -11.16,-3.27 -13.78,-9.75l0,8.72l-7.48,0l0,-70.32l7.52,0l0,29.65c2.76,-6.53 7.99,-9.9 14.62,-9.9c11.53,0 17.33,11.18 17.33,25.79c-0.04,14.02 -6.08,25.79 -18.22,25.79l0.01,0.02zm-1.12,-43.67c-6.68,0 -12.61,4.87 -12.61,15.89l0,3.96c0,11.03 5.47,15.89 11.82,15.89c8.4,0 12.75,-6.36 12.75,-17.88c-0.09,-11.89 -4.25,-17.88 -11.96,-17.88l0,0.02zm27.09,-6.9l7.48,0l0,30.02c0,8.94 3.13,12.9 10.24,12.9c6.91,0 11.68,-5.25 11.68,-15.3l0,-27.61l7.48,0l0,49.62l-7.48,0l0,-8.13c-2.71,5.72 -7.99,9.26 -13.69,9.16c-9.95,0 -15.69,-7.91 -15.69,-21.57l0,-29.06l-0.01,-0.02zm78.66,48.32c-2.62,1.6 -6.59,2.26 -10.55,2.26c-15.42,0 -22.65,-10.71 -22.65,-25.96c0,-14.98 7.2,-25.69 22.65,-25.69c3.55,-0.1 7.09,0.69 10.33,2.46l0,7.91c-3.08,-1.67 -6.45,-2.46 -9.85,-2.36c-11.26,0 -15.84,8.13 -15.84,17.76s4.66,17.76 16.02,17.76c3.37,0.1 6.68,-0.49 9.85,-1.77l0.04,7.59l0,0.03zm8.51,1.28l0,-70.38l7.48,0l0,43.99l18.64,-23.23l9.71,0l-20.37,24.35l21.2,25.25l-10.13,0l-19.06,-23.23l0,23.23l-7.48,0l0,0.02zm61.33,0.96c-16.21,0 -23.3,-10.71 -23.3,-25.96c0,-14.98 7.29,-25.69 20.46,-25.69c13.37,0 18.68,10.66 18.68,25.69l0,3.86l-31.62,0c1.03,8.45 5.8,13.91 16.02,13.91c4.48,0 8.97,-0.91 13.17,-2.68l0,7.91c-3.5,2.19 -8.97,2.95 -13.41,2.95l0,0.02zm-15.84,-29.33l24.15,0c-0.42,-9.21 -4.07,-14.5 -11.53,-14.5c-7.9,-0.05 -11.86,5.83 -12.67,14.45l0,0.05l0.04,0zm57.69,20.02c1.59,-0.05 3.13,-0.27 4.66,-0.69l0,8.25c-1.64,0.54 -3.32,0.81 -4.99,0.81c-9.3,0 -13.78,-6.26 -13.78,-15.47l0,-26.23l-7,0l0,-7.91l7,0l0,-10.54l7.29,0l0,10.54l11.53,0l0,7.91l-11.53,0l0,26.06c-0.04,4.33 2.19,7.27 6.82,7.27z" id="svg_1"/>
  <g id="svg_5">
   <path class="st1" d="m154.71,111.81l38.04,0l9.26,-52.3l-57.4,0l10.1,52.3z" id="svg_2"/>
   <path class="st2" d="m88.59,5.99c-3.32,0 -5.94,2.43 -5.94,5.66c0,0.27 0,0.67 0.14,0.94l24.76,146.4c0.7,3.64 3.87,6.47 7.75,6.47l118.66,0c2.91,0 5.4,-2.03 5.81,-4.72l24.76,-148.01c0.55,-3.1 -1.66,-6.07 -4.84,-6.47c-0.27,0 -0.7,-0.13 -0.97,-0.13l-170.12,-0.13l0,-0.01zm104.15,105.82l-37.9,0l-10.23,-52.3l57.4,0l-9.26,52.3z" id="svg_3"/>
   <path class="st3" d="m256.63,59.5l-54.64,0l-9.13,52.3l-38.04,0l-44.81,51.77c1.38,1.21 3.18,1.89 5.12,1.89l118.81,0c2.91,0 5.4,-2.03 5.81,-4.72l16.87,-101.24z" id="svg_4"/>
  </g>
 </g>
</svg>