<?xml version="1.0"?>
<svg width="67" height="48.00000000000001" xmlns="http://www.w3.org/2000/svg" xmlns:svg="http://www.w3.org/2000/svg" enable-background="new 0 0 103.9 74" version="1.0" xml:space="preserve">
 <style type="text/css">.st0{fill:#BA141A;}
	.st1{opacity:0.4;fill:#1E1E1E;enable-background:new    ;}</style>
 <g class="layer">
  <title>Layer 1</title>
  <g id="svg_11">
   <path class="st0" d="m15.02,23.94c0,1.4 0.2,2.8 0.5,4.2l7.7,-2.6c-0.2,-1.5 -0.2,-3 0,-4.4l-8.2,2.8z" id="svg_1"/>
   <path class="st0" d="m56.22,9.74l-8.2,2.8c1,1 1.9,2.2 2.7,3.5l7.7,-2.6c-0.7,-1.3 -1.4,-2.5 -2.2,-3.7z" id="svg_2"/>
   <path class="st0" d="m44.52,20.84c0.7,2 0.9,3.9 0.8,5.9l8,-2.7c-0.1,-1.9 -0.5,-3.8 -1.2,-5.7c-0.3,-0.8 -0.6,-1.6 -1,-2.3l-7.7,2.6c0.5,0.6 0.8,1.4 1.1,2.2z" id="svg_3"/>
   <path class="st0" d="m16.62,30.44c-0.3,-0.8 -0.5,-1.6 -0.6,-2.5l-7.7,2.6c0.2,0.8 0.4,1.6 0.7,2.4c0.7,1.9 1.5,3.7 2.6,5.2l8,-2.7c-1.3,-1.4 -2.3,-3.1 -3,-5z" id="svg_4"/>
   <path class="st0" d="m49.22,25.34c-0.4,5.7 -4.1,10.9 -9.9,12.8s-11.9,0.2 -15.7,-4.1l-8,2.7c5.6,8.5 16.3,12.5 26.3,9s16.1,-13.1 15.4,-23.2l-8.1,2.8z" id="svg_5"/>
   <path class="st0" d="m19.92,22.14c0.8,-5.3 4.4,-10 9.8,-11.9s11.2,-0.4 15,3.3l8.2,-2.8c-5.7,-7.9 -16.1,-11.5 -25.8,-8.1s-15.6,12.6 -15.3,22.3l8.1,-2.8z" id="svg_6"/>
   <path class="st1" d="m23.02,22.84c0,-0.6 0.1,-1.2 0.1,-1.8l-8.2,2.8c0,0.6 0.1,1.1 0.1,1.7l8,-2.7z" id="svg_7"/>
   <path class="st1" d="m57.12,11.14c-0.3,-0.5 -0.6,-1 -0.9,-1.4l-8.2,2.8c0.4,0.4 0.8,0.9 1.2,1.3l7.9,-2.7z" id="svg_8"/>
   <path class="st1" d="m57.32,25.14c0,-0.9 0,-1.7 0,-2.6l-8,2.7c-0.1,0.9 -0.2,1.9 -0.5,2.8l8.5,-2.9z" id="svg_9"/>
   <path class="st1" d="m25.72,36.04c-0.8,-0.6 -1.5,-1.2 -2.1,-1.9l-8,2.7c0.5,0.7 1,1.4 1.6,2.1l8.5,-2.9z" id="svg_10"/>
  </g>
 </g>
</svg>