<?xml version="1.0"?>
<svg width="800" height="600" xmlns="http://www.w3.org/2000/svg" xmlns:svg="http://www.w3.org/2000/svg" enable-background="new 0 0 800 600" version="1.0" xml:space="preserve">
 <style type="text/css">.st0{fill-rule:evenodd;clip-rule:evenodd;fill:#EA505B;}
	.st1{fill:#743E7A;}
	.st2{fill-rule:evenodd;clip-rule:evenodd;fill:#743E7A;}</style>
 <g class="layer">
  <title>Layer 1</title>
  <g id="svg_11">
   <g id="svg_1">
    <path class="st0" d="m396.61,205.46l0,4.17m108.02,128.12l3.66,-1.04l0.52,2.86c2.09,12.76 1.05,23.7 -3.92,34.63c7.85,1.04 14.91,4.95 18.57,13.02c2.62,5.73 4.97,12.5 5.23,18.75c0.26,4.69 -1.57,9.37 -5.23,12.5c-2.09,1.82 -4.97,2.86 -7.85,2.86l-41.59,0c-2.35,6.51 -7.06,12.5 -14.12,14.32c-1.83,0.52 -3.92,0.78 -6.02,0.78c-2.09,0 -4.18,0.26 -6.28,0.26c-5.49,0 -10.72,0 -16.22,0c-8.37,0 -16.74,-0.26 -25.11,-0.52c-4.97,0 -9.68,-3.12 -11.77,-7.55c-2.09,4.69 -6.8,7.55 -11.77,7.55c-8.37,0.26 -16.74,0.26 -25.11,0.52c-5.49,0 -10.72,0 -16.22,0c-2.09,0 -4.18,0 -6.28,-0.26c-2.09,0 -3.92,-0.26 -6.02,-0.78c-6.8,-1.82 -11.51,-7.81 -14.12,-14.32l-41.32,0c-2.88,0 -5.49,-1.04 -7.85,-2.86c-3.4,-3.12 -5.49,-7.81 -5.23,-12.5c0,-6.25 2.62,-13.02 4.97,-18.75c1.31,-3.12 3.4,-5.73 6.28,-7.81c3.4,-2.6 7.58,-4.43 12.03,-4.95c-5.23,-11.2 -6.02,-22.13 -3.92,-34.63l0.52,-2.86l3.92,1.04c0.52,-2.34 1.05,-4.69 1.83,-7.03c2.88,-8.33 7.85,-15.88 14.65,-21.35c2.35,-2.08 5.23,-3.65 8.11,-4.95c0.52,-7.55 1.31,-15.1 3.14,-22.65c1.57,-10.16 4.45,-19.79 8.89,-28.9c-2.09,-2.6 -3.92,-5.47 -5.49,-8.59c-0.26,-0.52 -0.52,-1.04 -0.52,-1.56c-13.6,-7.55 -25.37,-17.71 -35.31,-29.69c-5.75,-7.03 -14.38,-18.23 -15.17,-27.6c-0.26,-3.39 -0.52,-6.51 -0.52,-9.9c0,-7.81 0.26,-15.62 1.31,-23.44c0.52,-4.43 1.31,-9.11 2.09,-13.54c-6.02,-7.03 -11.25,-14.58 -15.69,-22.65c-7.06,-12.76 -11.51,-26.56 -13.08,-40.88c-1.57,-14.32 -0.52,-28.64 3.14,-42.45c1.83,-7.03 8.37,-11.72 15.43,-11.72c27.2,0 50.74,10.94 72.45,25.26c41.06,-25 92.59,-25 133.65,0c21.71,-14.32 45.25,-25.26 72.45,-25.26c7.32,0 13.6,4.95 15.43,11.72c3.66,13.8 4.71,28.38 3.14,42.45c-1.83,14.32 -6.28,28.38 -13.08,40.88c-4.45,8.07 -9.68,15.62 -15.69,22.65c0.78,4.17 1.57,8.59 2.09,13.02c1.05,8.07 1.57,15.88 1.31,23.96c0,3.39 -0.26,6.77 -0.52,9.9c-0.78,9.63 -9.15,20.31 -15.17,27.6c-9.68,11.98 -21.71,22.13 -35.31,29.69l-0.52,1.56c-1.05,2.34 -2.35,4.69 -3.66,7.03c-1.31,2.08 -2.62,3.91 -4.45,5.73c1.05,2.6 2.09,5.21 2.88,7.81c1.83,5.73 3.14,11.46 4.18,17.45c0.52,3.12 1.31,5.99 1.57,9.11c12.03,-20.05 27.98,-38.28 48.39,-49.48c11.77,-6.77 25.37,-10.42 38.97,-10.42c14.38,0.26 28.77,7.03 39.75,16.41c12.03,10.16 21.97,24.48 23.54,40.36c0.26,2.6 0,5.21 -0.52,7.81c-2.35,8.33 -8.37,15.36 -16.48,18.75c-9.94,4.69 -22.49,4.43 -30.86,-3.39c-4.71,-4.43 -6.28,-9.37 -8.63,-15.1c-1.05,-3.39 -3.14,-6.25 -6.02,-8.33c-3.92,-3.12 -8.89,-4.43 -14.12,-4.17c-7.06,0.52 -13.6,4.43 -18.57,9.37c-2.88,2.86 -5.49,5.73 -7.85,8.85c-4.71,5.99 -9.15,11.98 -12.82,18.49c-2.88,4.95 -5.49,10.16 -7.85,15.36c0,0.26 -0.26,0.52 -0.52,0.78c0.26,0.52 0.26,0.52 0.26,0.78l0,0zm10.98,-45.05c0.78,0 1.31,0 1.83,0.26c2.35,-2.86 4.97,-5.73 7.58,-8.33c0.78,-0.78 1.57,-1.56 2.62,-2.34c-3.4,-2.34 -6.02,-5.21 -7.85,-8.85c-1.83,-2.86 -2.88,-6.25 -3.4,-9.63c-5.49,4.69 -10.46,9.9 -14.91,15.62c-0.26,3.65 3.4,7.81 5.75,9.9c2.35,2.08 5.23,3.39 8.37,3.39l0,0zm-3.66,7.55c-3.4,-0.78 -6.8,-2.34 -9.68,-4.43c-2.88,-2.34 -5.23,-4.95 -7.06,-8.33c-4.71,6.77 -8.89,13.8 -12.82,21.09c1.31,0.78 2.62,1.82 3.92,2.6c4.45,3.39 8.11,7.81 10.72,12.76c4.18,-8.33 9.15,-16.14 14.91,-23.7l0,0zm64.86,-20.57c0,0.52 0,1.04 -0.26,1.3c8.11,7.81 7.58,17.19 12.82,21.87c8.89,8.33 28.51,-1.04 27.46,-13.28c-1.05,-10.42 -7.32,-21.09 -15.69,-29.16c0,0 0,0 -0.26,0c-1.31,-1.04 -2.88,-1.82 -4.45,-1.82c-10.98,-0.26 -19.35,10.94 -19.62,21.09l0,0zm-7.58,-3.91c0.52,-2.6 1.31,-5.21 2.35,-7.81c3.14,-7.81 9.68,-13.8 17.78,-16.41c-7.32,-4.69 -15.69,-7.29 -24.32,-7.81c-2.35,0 -4.71,0 -7.06,0.26c-0.78,0.52 -1.57,1.04 -1.83,1.3c-0.52,0.26 -0.78,0.78 -1.31,1.04c-5.49,5.99 -4.71,17.71 0,23.96c0.26,0.52 0.52,0.78 0.52,1.3c4.97,0.52 9.68,2.08 13.86,4.17l0,0zm-22.49,-3.12c-2.09,-4.17 -3.4,-8.85 -3.4,-13.54c-0.26,-4.17 0.78,-8.33 2.35,-12.24c-4.45,1.56 -8.89,3.39 -13.08,5.73c-2.62,1.3 -4.97,2.86 -7.58,4.69c0,0 0,0 0,0c-2.35,3.39 0,9.37 1.57,12.5c1.57,2.86 4.18,5.47 7.06,7.03c0.26,0.26 0.78,0.26 1.05,0.52c3.66,-2.34 7.85,-3.91 12.03,-4.69l0,0zm-161.63,-217.43c3.4,0 4.97,4.17 2.62,6.51c-2.35,2.34 -6.54,0.78 -6.54,-2.6c0,-2.34 1.83,-3.91 3.92,-3.91l0,0zm0,16.41c3.4,0 4.97,4.17 2.62,6.51c-2.35,2.34 -6.54,0.78 -6.54,-2.6c0,-2.08 1.83,-3.91 3.92,-3.91l0,0zm23.28,-16.41c3.4,0 4.97,4.17 2.62,6.51c-2.35,2.34 -6.54,0.78 -6.54,-2.6c0,-2.34 1.83,-3.91 3.92,-3.91l0,0zm0,16.41c3.4,0 4.97,4.17 2.62,6.51c-2.35,2.34 -6.54,0.78 -6.54,-2.6c0,-2.08 1.83,-3.91 3.92,-3.91l0,0zm-8.63,-28.9l0,45.05c24.06,0.52 47.86,7.29 62.51,20.05c16.74,14.84 27.98,40.36 26.68,53.64c-1.05,11.98 -20.4,20.31 -46.29,24.48c1.31,2.34 2.09,4.69 2.62,7.29c0.52,3.65 0.52,7.29 0,10.94c9.68,-1.04 18.57,-2.6 26.42,-4.17c13.86,-2.86 27.46,-7.03 40.54,-12.24c0.52,-1.3 0.78,-2.34 0.78,-3.65c0,0 5.49,-50.52 -23.28,-91.92c-20.14,-29.95 -53.62,-48.17 -89.97,-49.48l0,0zm-6.28,45.05l0,-45.05c-36.88,1.04 -70.88,20.05 -91.28,50.78c-27.72,41.14 -22.23,90.62 -22.23,90.62c0.26,1.3 0.52,2.6 1.05,3.91c13.08,5.21 26.68,9.11 40.54,11.98c7.85,1.56 16.48,3.12 26.42,4.17c-0.52,-3.65 -0.78,-7.29 0,-10.94c0.52,-2.6 1.31,-5.21 2.62,-7.29c-25.89,-4.17 -44.99,-12.5 -46.29,-24.48c-1.31,-13.54 9.94,-39.06 26.68,-53.64c14.65,-12.76 38.45,-19.53 62.51,-20.05l0,0zm-43.42,123.17c-9.94,-1.04 -19.88,-2.6 -29.82,-4.69c-11.77,-2.6 -23.28,-5.73 -34.78,-9.9c1.83,2.6 3.66,5.21 5.75,7.81c13.86,16.67 31.91,29.16 52.57,35.94c6.8,2.34 13.6,4.17 20.66,5.47c0,0 0,-0.26 0,-0.26c-0.78,-1.82 -0.78,-3.91 -0.52,-5.73c0.78,-4.95 4.45,-7.81 9.15,-9.9c-8.89,-3.12 -17,-8.07 -21.71,-16.14c-0.52,-0.78 -1.05,-1.56 -1.31,-2.6l0,0zm22.49,31.25c1.05,2.6 4.45,4.69 8.63,5.99c4.97,0.52 10.2,1.04 15.43,1.3c5.23,-0.26 10.46,-0.78 15.43,-1.3c3.92,-1.3 7.06,-3.12 8.37,-5.47c5.49,-10.16 -51.26,-9.9 -47.86,-0.52l0,0zm135.22,-45.83c-11.25,4.17 -22.75,7.29 -34.52,9.9c-9.94,2.08 -19.62,3.65 -29.82,4.69c-0.52,0.78 -0.78,1.82 -1.31,2.6c-4.71,8.07 -12.55,13.02 -21.71,16.14c4.71,2.08 8.11,4.95 9.15,9.63c0.52,2.08 0.26,4.17 -0.52,6.25c17,-3.12 33.22,-9.37 47.6,-18.49c10.2,-7.03 19.09,-15.36 26.68,-25c1.57,-1.82 2.88,-3.65 4.45,-5.73l0,0zm-113.51,16.67c-2.35,4.17 -7.32,10.42 -17.78,8.33c-12.82,-4.17 -21.97,-12.76 -19.62,-26.3c2.09,-12.5 22.75,-20.05 39.75,-20.05l0.26,0c17,-0.26 37.66,7.55 39.75,20.05c2.09,11.98 -4.71,19.79 -14.65,24.48c-15.17,5.47 -20.4,-1.56 -22.75,-6.25c-1.05,-2.34 -1.57,-3.39 -2.09,-3.39l-0.26,0c-0.78,0 -1.31,1.04 -2.62,3.12l0,0zm2.35,-32.29c-10.2,0 -22.75,2.86 -23.8,9.37c-2.09,10.42 13.6,15.62 23.8,15.62l0.26,0c10.2,0 25.89,-5.21 23.8,-15.62c-1.31,-6.51 -13.86,-9.37 -24.06,-9.37l0,0zm-28.51,-20.83c0,4.95 -7.58,4.95 -7.58,0c0,-4.17 -1.31,-8.07 -3.92,-11.2c-2.35,-2.6 -5.75,-4.43 -9.15,-4.43c-2.35,0 -4.71,0.78 -6.54,2.08c-2.09,1.56 -3.92,3.65 -4.97,5.99c-0.78,1.82 -3.14,2.6 -4.97,1.82c-1.83,-0.78 -2.62,-3.12 -1.83,-4.95c1.83,-3.65 4.45,-6.77 7.58,-9.11c3.14,-2.08 7.06,-3.39 10.98,-3.39c5.75,0 11.25,2.6 14.91,7.03c3.4,4.69 5.49,10.42 5.49,16.14l0,0zm57.28,0c0,4.95 7.58,4.95 7.58,0c0,-4.17 1.31,-8.07 3.92,-11.2c2.35,-2.6 5.75,-4.43 9.15,-4.43c2.35,0 4.71,0.78 6.54,2.08c2.09,1.56 3.92,3.65 4.97,5.99c2.09,4.43 8.89,1.3 6.8,-3.12c-1.83,-3.65 -4.45,-6.77 -7.58,-9.11c-3.14,-2.08 -7.06,-3.39 -10.98,-3.39c-5.75,0 -11.25,2.6 -14.91,7.03c-3.4,4.43 -5.75,10.42 -5.49,16.14l0,0zm2.88,101.3c-8.11,2.6 -16.48,4.17 -25.11,4.69c-19.62,1.04 -39.23,-3.12 -56.49,-12.5c-3.4,-1.04 -6.54,-2.08 -9.94,-3.12c7.85,10.68 19.09,18.75 31.65,22.92c-12.82,-2.08 -25.89,-6.25 -36.09,-13.02c-6.54,14.06 -10.46,33.59 -7.32,60.41c0.78,5.99 1.57,11.98 2.88,17.19c17,-7.55 29.03,-4.69 43.68,5.21c1.05,-16.14 4.18,-32.29 8.89,-47.91c1.05,-3.12 2.35,-4.43 4.18,-4.69c1.83,-0.26 5.23,0 4.97,5.47c-0.52,2.34 -1.05,4.95 -1.31,7.03c-1.05,5.21 -1.83,10.42 -2.62,15.62c-0.78,5.21 -1.57,10.42 -2.09,15.62c-0.52,3.39 -0.78,6.77 -1.05,10.16c0,1.82 -0.26,3.91 -0.26,5.73c8.11,1.04 15.95,0.78 24.06,-0.26c0,-1.82 -0.26,-3.65 -0.26,-5.73c-0.52,-8.33 -1.83,-17.19 -3.14,-25.52c-0.78,-4.95 -1.57,-9.9 -2.62,-14.84c-0.52,-3.12 -1.31,-5.99 -2.35,-9.11c0.26,-5.47 7.32,-6.77 9.42,-0.52c4.97,15.88 8.11,32.55 9.15,49.22c13.34,-7.55 30.86,-13.28 43.68,-6.25c1.05,-5.47 2.09,-10.94 2.88,-16.93c2.88,-24.74 -0.26,-43.23 -6.02,-57.03c-10.2,5.99 -23.28,9.11 -35.57,10.68c13.86,-3.91 25.89,-12.24 34.52,-23.7c-3.14,1.04 -6.54,2.34 -9.94,3.12c-5.23,3.65 -11.25,6.25 -17.78,8.07l0,0zm-148.29,-221.34c13.6,3.91 26.42,9.9 38.18,17.71c-4.97,3.91 -9.42,8.07 -13.86,12.76c-2.35,-3.65 -4.71,-7.29 -7.32,-10.94c-4.97,-7.03 -10.72,-13.54 -17,-19.53l0,0zm-22.23,-3.12l1.31,0c15.17,8.33 28.51,25 38.45,41.66c-2.09,2.6 -3.92,5.21 -6.02,8.07c-7.32,10.94 -13.08,22.92 -17,35.41c-12.29,-16.41 -27.72,-46.35 -17.26,-84.89c0.26,0 0.26,0 0.52,-0.26l0,0zm278.02,0l-1.31,0c-15.17,8.33 -28.51,25 -38.45,41.66c1.57,2.08 3.14,4.17 4.71,6.51c7.85,11.46 13.86,23.96 18.05,36.98c12.29,-16.41 27.72,-46.35 17.26,-84.89l-0.26,-0.26zm-22.49,3.12c-13.6,3.91 -26.42,9.9 -38.18,17.71c4.97,3.91 9.42,8.33 13.86,12.76c2.35,-3.65 4.71,-7.55 7.32,-10.94c4.97,-7.03 10.72,-13.54 17,-19.53l0,0zm-182.56,309.36c3.66,13.8 8.63,27.08 15.43,39.58c0.78,1.3 1.83,2.6 3.14,3.12c5.23,3.12 12.55,6.51 13.86,19.79c-6.02,-7.55 -11.77,-13.02 -20.66,-14.84c-4.71,-0.26 -9.15,1.3 -12.55,4.17c-7.32,7.55 -2.09,20.57 2.35,21.61c4.45,1.04 49.69,0 49.69,0s1.83,-8.33 -1.57,-13.02c-3.4,-4.69 -8.89,-28.64 -9.15,-54.16c-10.46,-9.37 -26.94,-15.62 -40.54,-6.25l0,0zm127.11,0c-3.66,13.8 -8.63,27.08 -15.43,39.58c-0.78,1.3 -1.83,2.6 -3.14,3.12c-5.23,3.12 -12.55,6.51 -13.86,19.79c6.02,-7.55 11.77,-13.02 20.66,-14.84c4.18,0 9.15,0.78 12.55,4.17c7.32,7.55 2.09,20.57 -2.35,21.61c-4.45,1.04 -49.69,0 -49.69,0s-1.83,-8.33 1.57,-13.02c3.4,-4.69 8.89,-28.64 9.15,-54.16c10.72,-9.37 27.2,-15.62 40.54,-6.25l0,0zm-59.37,56.77c-1.31,0 -2.62,0 -4.18,0l-3.14,0c-0.52,-1.04 -1.05,-1.82 -1.57,-2.86c-0.78,-1.56 -1.31,-3.12 -1.57,-4.69c-1.31,-4.43 -2.35,-9.11 -3.14,-13.8c-1.57,-8.59 -2.35,-17.19 -2.35,-26.04c8.37,1.04 16.74,1.04 24.85,-0.26c-0.26,10.16 -1.31,20.05 -3.14,30.21c-0.78,3.39 -2.35,11.98 -4.18,15.1c-0.78,0.78 -1.05,1.56 -1.57,2.34l0,0zm98.86,-54.68c0.26,24.48 -15.17,34.11 -24.06,41.14c41.06,-18.75 45.77,13.02 41.59,16.67l-42.63,0c-0.26,-10.42 -7.58,-19.27 -17.78,-21.61c3.14,-6.77 6.02,-13.8 8.37,-21.09c12.03,-6.25 26.42,-12.76 34.52,-15.1l0,0zm-22.49,-35.67c10.2,4.69 16.74,15.62 18.31,27.86c-8.63,2.86 -17,6.25 -25.11,10.68c2.88,-10.68 4.97,-21.35 6.28,-32.29c0.26,-2.08 0.52,-4.17 0.52,-6.25l0,0zm-161.11,0.26c-10.2,4.95 -16.48,15.62 -17.78,27.6c8.63,2.86 16.74,6.25 24.85,10.42c-2.88,-10.68 -4.97,-21.35 -6.28,-32.29c-0.26,-1.82 -0.52,-3.91 -0.78,-5.73l0,0zm-22.49,35.41c-0.26,24.48 15.17,34.11 24.06,41.14c-41.06,-18.75 -45.77,13.02 -41.59,16.67l41.85,0c0.26,-5.99 2.62,-11.46 6.54,-15.62c2.88,-3.12 6.8,-5.21 10.72,-6.51c-0.78,-1.82 -1.57,-3.39 -2.35,-5.21c-2.35,-5.21 -4.45,-10.68 -6.28,-16.14c-11.51,-5.99 -24.85,-12.24 -32.95,-14.32l0,0zm0,0" id="svg_2"/>
   </g>
   <path class="st1" d="m190.67,482.07l-33.36,101.5l-37.27,0l33.36,-101.5l-26.62,0l10.53,-32.03l90.39,0l-10.53,32.03l-26.5,0zm0,0" id="svg_3"/>
   <path class="st1" d="m290.29,551.67l-10.41,31.78l-96.54,0l43.89,-133.53l84.36,0l-10.17,30.8l-45.67,0l-6.39,19.46l46.73,0l-9.7,29.69l-46.73,0l-7.22,21.8l57.85,0zm0,0" id="svg_4"/>
   <path class="st1" d="m388.01,583.57l-43.06,0l-5.56,-50.26l-19.64,19.34l-10.06,30.8l-37.15,0l43.89,-133.53l37.15,0l-18.1,55.06l53.36,-55.06l35.37,0l-48.39,48.78l12.19,84.87zm0,0" id="svg_5"/>
   <path class="st2" d="m454.98,482.07l-33.36,101.5l-34.55,0l-0.83,-6.04l31.35,-95.47l-26.26,0l31.71,-32.03l116.18,0l-57.74,32.03l-26.5,0zm0,0" id="svg_6"/>
   <path class="st1" d="m501.71,583.57c-17.75,0 -30.17,-6.04 -37.39,-18.11c-7.22,-12.07 -7.34,-28.21 -0.71,-48.53c6.15,-18.85 17.27,-35.48 32.06,-47.92c14.32,-12.32 32.3,-19.09 50.87,-18.85c17.51,0 29.93,5.91 37.15,17.86c7.1,11.83 7.34,27.84 0.71,47.55c-6.86,20.57 -17.98,37.08 -33.25,49.4c-15.38,12.32 -31.83,18.6 -49.45,18.6l0,0zm9.58,-29.44c6.63,0 12.3,-2.96 17.15,-8.87c4.85,-5.91 9.94,-16.63 15.03,-32.15c7.45,-22.54 5.32,-33.88 -6.51,-33.88c-12.78,0 -23.43,12.81 -32.06,38.56c-7.93,24.27 -5.92,36.34 6.39,36.34l0,0zm0,0" id="svg_7"/>
   <path class="st1" d="m668.53,583.57l-32.06,0l-15.97,-58.88c-2.25,-9.12 -3.79,-18.35 -4.26,-27.72c-0.59,7.39 -1.89,14.78 -4.14,21.93l-21.3,64.67l-31.94,0l43.77,-133.53l37.15,0l13.84,48.9c2.48,8.38 4.14,17 5.09,25.62c1.89,-11.95 4.73,-23.65 8.52,-34.98l12.9,-39.54l32.18,0l-43.77,133.53zm0,0" id="svg_8"/>
  </g>
 </g>
</svg>